<?xml version="1.0" encoding="UTF-8" standalone="no"?>
<svg
   width="56"
   height="56"
   version="1.1"
   id="svg2"
   sodipodi:docname="org-tohoku.svg"
   inkscape:version="1.3.1 (91b66b0, 2023-11-16)"
   xmlns:inkscape="http://www.inkscape.org/namespaces/inkscape"
   xmlns:sodipodi="http://sodipodi.sourceforge.net/DTD/sodipodi-0.dtd"
   xmlns="http://www.w3.org/2000/svg"
   xmlns:svg="http://www.w3.org/2000/svg">
  <defs
     id="defs2">
    <clipPath
       clipPathUnits="userSpaceOnUse"
       id="clipPath48">
      <path
         d="M 0,822.047 H 2976.378 V 0 H 0 Z"
         transform="translate(-369.98221,-712.51392)"
         id="path48" />
    </clipPath>
    <clipPath
       clipPathUnits="userSpaceOnUse"
       id="clipPath50">
      <path
         d="M 0,822.047 H 2976.378 V 0 H 0 Z"
         transform="translate(-212.16051,-534.08131)"
         id="path50" />
    </clipPath>
    <clipPath
       clipPathUnits="userSpaceOnUse"
       id="clipPath52">
      <path
         d="M 0,822.047 H 2976.378 V 0 H 0 Z"
         transform="translate(-211.18441,-568.08181)"
         id="path52" />
    </clipPath>
    <clipPath
       clipPathUnits="userSpaceOnUse"
       id="clipPath54">
      <path
         d="M 0,822.047 H 2976.378 V 0 H 0 Z"
         transform="translate(-237.4642,-548.75271)"
         id="path54" />
    </clipPath>
    <clipPath
       clipPathUnits="userSpaceOnUse"
       id="clipPath56">
      <path
         d="M 0,822.047 H 2976.378 V 0 H 0 Z"
         transform="translate(-283.80451,-538.09351)"
         id="path56" />
    </clipPath>
    <clipPath
       clipPathUnits="userSpaceOnUse"
       id="clipPath58">
      <path
         d="M 0,822.047 H 2976.378 V 0 H 0 Z"
         transform="translate(-258.29961,-596.20531)"
         id="path58" />
    </clipPath>
    <clipPath
       clipPathUnits="userSpaceOnUse"
       id="clipPath60">
      <path
         d="M 0,822.047 H 2976.378 V 0 H 0 Z"
         transform="translate(-290.15071,-524.46361)"
         id="path60" />
    </clipPath>
    <clipPath
       clipPathUnits="userSpaceOnUse"
       id="clipPath62">
      <path
         d="M 0,822.047 H 2976.378 V 0 H 0 Z"
         transform="translate(-286.06281,-568.08181)"
         id="path62" />
    </clipPath>
    <clipPath
       clipPathUnits="userSpaceOnUse"
       id="clipPath64">
      <path
         d="M 0,822.047 H 2976.378 V 0 H 0 Z"
         transform="translate(-548.71031,-399.12571)"
         id="path64" />
    </clipPath>
    <clipPath
       clipPathUnits="userSpaceOnUse"
       id="clipPath66">
      <path
         d="M 0,822.047 H 2976.378 V 0 H 0 Z"
         transform="translate(-530.13601,-438.16771)"
         id="path66" />
    </clipPath>
    <clipPath
       clipPathUnits="userSpaceOnUse"
       id="clipPath68">
      <path
         d="M 0,822.047 H 2976.378 V 0 H 0 Z"
         transform="translate(-577.83922,-403.39621)"
         id="path68" />
    </clipPath>
    <clipPath
       clipPathUnits="userSpaceOnUse"
       id="clipPath70">
      <path
         d="M 0,822.047 H 2976.378 V 0 H 0 Z"
         transform="translate(-631.16092,-403.74291)"
         id="path70" />
    </clipPath>
    <clipPath
       clipPathUnits="userSpaceOnUse"
       id="clipPath72">
      <path
         d="M 0,822.047 H 2976.378 V 0 H 0 Z"
         transform="translate(-570.67661,-464.51981)"
         id="path72" />
    </clipPath>
    <clipPath
       clipPathUnits="userSpaceOnUse"
       id="clipPath74">
      <path
         d="M 0,822.047 H 2976.378 V 0 H 0 Z"
         transform="translate(-638.43982,-388.05051)"
         id="path74" />
    </clipPath>
    <clipPath
       clipPathUnits="userSpaceOnUse"
       id="clipPath76">
      <path
         d="M 0,822.047 H 2976.378 V 0 H 0 Z"
         transform="translate(-642.31331,-437.83181)"
         id="path76" />
    </clipPath>
    <clipPath
       clipPathUnits="userSpaceOnUse"
       id="clipPath78">
      <path
         d="M 0,822.047 H 2976.378 V 0 H 0 Z"
         transform="translate(-326.42411,-420.60621)"
         id="path78" />
    </clipPath>
    <clipPath
       clipPathUnits="userSpaceOnUse"
       id="clipPath80">
      <path
         d="M 0,822.047 H 2976.378 V 0 H 0 Z"
         transform="translate(-323.43831,-410.15701)"
         id="path80" />
    </clipPath>
    <clipPath
       clipPathUnits="userSpaceOnUse"
       id="clipPath82">
      <path
         d="M 0,822.047 H 2976.378 V 0 H 0 Z"
         transform="translate(-475.63211,-414.25271)"
         id="path82" />
    </clipPath>
    <clipPath
       clipPathUnits="userSpaceOnUse"
       id="clipPath84">
      <path
         d="M 0,822.047 H 2976.378 V 0 H 0 Z"
         transform="translate(-470.19021,-418.60821)"
         id="path84" />
    </clipPath>
    <clipPath
       clipPathUnits="userSpaceOnUse"
       id="clipPath86">
      <path
         d="M 0,822.047 H 2976.378 V 0 H 0 Z"
         transform="translate(-322.91971,-189.10031)"
         id="path86" />
    </clipPath>
    <clipPath
       clipPathUnits="userSpaceOnUse"
       id="clipPath88">
      <path
         d="M 0,822.047 H 2976.378 V 0 H 0 Z"
         transform="translate(-479.21121,-180.1365)"
         id="path88" />
    </clipPath>
    <clipPath
       clipPathUnits="userSpaceOnUse"
       id="clipPath90">
      <path
         d="M 0,822.047 H 2976.378 V 0 H 0 Z"
         transform="translate(-433.01451,-214.14041)"
         id="path90" />
    </clipPath>
    <clipPath
       clipPathUnits="userSpaceOnUse"
       id="clipPath92">
      <path
         d="M 0,822.047 H 2976.378 V 0 H 0 Z"
         transform="translate(-387.57791,-214.42851)"
         id="path92" />
    </clipPath>
    <clipPath
       clipPathUnits="userSpaceOnUse"
       id="clipPath94">
      <path
         d="M 0,822.047 H 2976.378 V 0 H 0 Z"
         transform="translate(-393.79431,-408.94121)"
         id="path94" />
    </clipPath>
    <clipPath
       clipPathUnits="userSpaceOnUse"
       id="clipPath96">
      <path
         d="M 0,822.047 H 2976.378 V 0 H 0 Z"
         transform="translate(-390.91091,-403.58961)"
         id="path96" />
    </clipPath>
    <clipPath
       clipPathUnits="userSpaceOnUse"
       id="clipPath98">
      <path
         d="M 0,822.047 H 2976.378 V 0 H 0 Z"
         transform="translate(-346.51451,-454.31761)"
         id="path98" />
    </clipPath>
    <clipPath
       clipPathUnits="userSpaceOnUse"
       id="clipPath100">
      <path
         d="M 0,822.047 H 2976.378 V 0 H 0 Z"
         transform="translate(-399.32401,-368.27321)"
         id="path100" />
    </clipPath>
    <clipPath
       clipPathUnits="userSpaceOnUse"
       id="clipPath102">
      <path
         d="M 0,822.047 H 2976.378 V 0 H 0 Z"
         transform="translate(-423.95251,-311.85521)"
         id="path102" />
    </clipPath>
    <clipPath
       clipPathUnits="userSpaceOnUse"
       id="clipPath104">
      <path
         d="M 0,822.047 H 2976.378 V 0 H 0 Z"
         transform="translate(-410.40121,-325.86791)"
         id="path104" />
    </clipPath>
    <clipPath
       clipPathUnits="userSpaceOnUse"
       id="clipPath106">
      <path
         d="M 0,822.047 H 2976.378 V 0 H 0 Z"
         transform="translate(-382.28111,-360.19801)"
         id="path106" />
    </clipPath>
    <clipPath
       clipPathUnits="userSpaceOnUse"
       id="clipPath108">
      <path
         d="M 0,822.047 H 2976.378 V 0 H 0 Z"
         transform="translate(-408.60481,-333.34551)"
         id="path108" />
    </clipPath>
    <clipPath
       clipPathUnits="userSpaceOnUse"
       id="clipPath110">
      <path
         d="M 0,822.047 H 2976.378 V 0 H 0 Z"
         transform="translate(-388.17851,-321.38941)"
         id="path110" />
    </clipPath>
    <clipPath
       clipPathUnits="userSpaceOnUse"
       id="clipPath112">
      <path
         d="M 0,822.047 H 2976.378 V 0 H 0 Z"
         transform="translate(-424.26741,-289.8318)"
         id="path112" />
    </clipPath>
    <clipPath
       clipPathUnits="userSpaceOnUse"
       id="clipPath114">
      <path
         d="M 0,822.047 H 2976.378 V 0 H 0 Z"
         transform="translate(-402.51061,-255.0027)"
         id="path114" />
    </clipPath>
    <clipPath
       clipPathUnits="userSpaceOnUse"
       id="clipPath116">
      <path
         d="M 0,822.047 H 2976.378 V 0 H 0 Z"
         transform="translate(-323.66831,-259.46261)"
         id="path116" />
    </clipPath>
    <clipPath
       clipPathUnits="userSpaceOnUse"
       id="clipPath118">
      <path
         d="M 0,822.047 H 2976.378 V 0 H 0 Z"
         transform="translate(-484.45881,-357.84551)"
         id="path118" />
    </clipPath>
    <clipPath
       clipPathUnits="userSpaceOnUse"
       id="clipPath120">
      <path
         d="M 0,822.047 H 2976.378 V 0 H 0 Z"
         transform="translate(-376.17271,-386.65891)"
         id="path120" />
    </clipPath>
    <clipPath
       clipPathUnits="userSpaceOnUse"
       id="clipPath122">
      <path
         d="M 0,822.047 H 2976.378 V 0 H 0 Z"
         transform="translate(-357.95391,-360.79271)"
         id="path122" />
    </clipPath>
    <clipPath
       clipPathUnits="userSpaceOnUse"
       id="clipPath124">
      <path
         d="M 0,822.047 H 2976.378 V 0 H 0 Z"
         transform="translate(-379.94561,-326.65311)"
         id="path124" />
    </clipPath>
    <clipPath
       clipPathUnits="userSpaceOnUse"
       id="clipPath126">
      <path
         d="M 0,822.047 H 2976.378 V 0 H 0 Z"
         transform="translate(-423.29961,-461.38601)"
         id="path126" />
    </clipPath>
    <clipPath
       clipPathUnits="userSpaceOnUse"
       id="clipPath128">
      <path
         d="M 0,822.047 H 2976.378 V 0 H 0 Z"
         transform="translate(-396.96471,-481.56621)"
         id="path128" />
    </clipPath>
    <clipPath
       clipPathUnits="userSpaceOnUse"
       id="clipPath130">
      <path
         d="M 0,822.047 H 2976.378 V 0 H 0 Z"
         transform="translate(-402.95051,-481.00121)"
         id="path130" />
    </clipPath>
    <clipPath
       clipPathUnits="userSpaceOnUse"
       id="clipPath132">
      <path
         d="M 0,822.047 H 2976.378 V 0 H 0 Z"
         transform="translate(-539.44661,-573.81471)"
         id="path132" />
    </clipPath>
    <clipPath
       clipPathUnits="userSpaceOnUse"
       id="clipPath134">
      <path
         d="M 0,822.047 H 2976.378 V 0 H 0 Z"
         transform="translate(-540.80212,-558.46221)"
         id="path134" />
    </clipPath>
    <clipPath
       clipPathUnits="userSpaceOnUse"
       id="clipPath136">
      <path
         d="M 0,822.047 H 2976.378 V 0 H 0 Z"
         transform="translate(-544.85971,-565.51831)"
         id="path136" />
    </clipPath>
    <clipPath
       clipPathUnits="userSpaceOnUse"
       id="clipPath138">
      <path
         d="M 0,822.047 H 2976.378 V 0 H 0 Z"
         transform="translate(-581.37481,-514.16191)"
         id="path138" />
    </clipPath>
    <clipPath
       clipPathUnits="userSpaceOnUse"
       id="clipPath140">
      <path
         d="M 0,822.047 H 2976.378 V 0 H 0 Z"
         transform="translate(-592.92661,-580.98661)"
         id="path140" />
    </clipPath>
    <clipPath
       clipPathUnits="userSpaceOnUse"
       id="clipPath142">
      <path
         d="M 0,822.047 H 2976.378 V 0 H 0 Z"
         transform="translate(-609.23081,-576.25171)"
         id="path142" />
    </clipPath>
    <clipPath
       clipPathUnits="userSpaceOnUse"
       id="clipPath144">
      <path
         d="M 0,822.047 H 2976.378 V 0 H 0 Z"
         transform="translate(-590.36071,-578.57892)"
         id="path144" />
    </clipPath>
    <clipPath
       clipPathUnits="userSpaceOnUse"
       id="clipPath146">
      <path
         d="M 0,822.047 H 2976.378 V 0 H 0 Z"
         transform="translate(-164.13411,-446.27511)"
         id="path146" />
    </clipPath>
    <clipPath
       clipPathUnits="userSpaceOnUse"
       id="clipPath148">
      <path
         d="M 0,822.047 H 2976.378 V 0 H 0 Z"
         transform="translate(-192.0052,-426.87181)"
         id="path148" />
    </clipPath>
    <clipPath
       clipPathUnits="userSpaceOnUse"
       id="clipPath150">
      <path
         d="M 0,822.047 H 2976.378 V 0 H 0 Z"
         transform="translate(-181.9774,-451.77081)"
         id="path150" />
    </clipPath>
    <clipPath
       clipPathUnits="userSpaceOnUse"
       id="clipPath152">
      <path
         d="M 0,822.047 H 2976.378 V 0 H 0 Z"
         transform="translate(-237.9832,-376.66671)"
         id="path152" />
    </clipPath>
    <clipPath
       clipPathUnits="userSpaceOnUse"
       id="clipPath154">
      <path
         d="M 0,822.047 H 2976.378 V 0 H 0 Z"
         transform="translate(-269.554,-447.03151)"
         id="path154" />
    </clipPath>
    <clipPath
       clipPathUnits="userSpaceOnUse"
       id="clipPath156">
      <path
         d="M 0,822.047 H 2976.378 V 0 H 0 Z"
         transform="translate(-403.23031,-116.3777)"
         id="path156" />
    </clipPath>
    <clipPath
       clipPathUnits="userSpaceOnUse"
       id="clipPath158">
      <path
         d="M 0,822.047 H 2976.378 V 0 H 0 Z"
         transform="translate(-396.34991,-573.00951)"
         id="path158" />
    </clipPath>
    <clipPath
       clipPathUnits="userSpaceOnUse"
       id="clipPath160">
      <path
         d="M 0,822.047 H 2976.378 V 0 H 0 Z"
         transform="translate(-439.16141,-539.57502)"
         id="path160" />
    </clipPath>
    <clipPath
       clipPathUnits="userSpaceOnUse"
       id="clipPath162">
      <path
         d="M 0,822.047 H 2976.378 V 0 H 0 Z"
         transform="translate(-354.47781,-494.39721)"
         id="path162" />
    </clipPath>
    <clipPath
       clipPathUnits="userSpaceOnUse"
       id="clipPath164">
      <path
         d="M 0,822.047 H 2976.378 V 0 H 0 Z"
         transform="translate(-794.24882,-406.85521)"
         id="path164" />
    </clipPath>
    <clipPath
       clipPathUnits="userSpaceOnUse"
       id="clipPath166">
      <path
         d="M 0,822.047 H 2976.378 V 0 H 0 Z"
         transform="translate(-256.5403,-205.3875)"
         id="path166" />
    </clipPath>
    <clipPath
       clipPathUnits="userSpaceOnUse"
       id="clipPath168">
      <path
         d="M 0,822.047 H 2976.378 V 0 H 0 Z"
         transform="translate(-263.36601,-322.96951)"
         id="path168" />
    </clipPath>
    <clipPath
       clipPathUnits="userSpaceOnUse"
       id="clipPath170">
      <path
         d="M 0,822.047 H 2976.378 V 0 H 0 Z"
         transform="translate(-254.8636,-317.97921)"
         id="path170" />
    </clipPath>
    <clipPath
       clipPathUnits="userSpaceOnUse"
       id="clipPath172">
      <path
         d="M 0,822.047 H 2976.378 V 0 H 0 Z"
         transform="translate(-265.08871,-318.62281)"
         id="path172" />
    </clipPath>
    <clipPath
       clipPathUnits="userSpaceOnUse"
       id="clipPath174">
      <path
         d="M 0,822.047 H 2976.378 V 0 H 0 Z"
         transform="translate(-290.30011,-208.88651)"
         id="path174" />
    </clipPath>
    <clipPath
       clipPathUnits="userSpaceOnUse"
       id="clipPath176">
      <path
         d="M 0,822.047 H 2976.378 V 0 H 0 Z"
         transform="translate(-293.13511,-241.73711)"
         id="path176" />
    </clipPath>
    <clipPath
       clipPathUnits="userSpaceOnUse"
       id="clipPath178">
      <path
         d="M 0,822.047 H 2976.378 V 0 H 0 Z"
         transform="translate(-235.0843,-284.15111)"
         id="path178" />
    </clipPath>
    <clipPath
       clipPathUnits="userSpaceOnUse"
       id="clipPath180">
      <path
         d="M 0,822.047 H 2976.378 V 0 H 0 Z"
         transform="translate(-195.04911,-319.00761)"
         id="path180" />
    </clipPath>
    <clipPath
       clipPathUnits="userSpaceOnUse"
       id="clipPath182">
      <path
         d="M 0,822.047 H 2976.378 V 0 H 0 Z"
         transform="translate(-176.224,-322.74881)"
         id="path182" />
    </clipPath>
    <clipPath
       clipPathUnits="userSpaceOnUse"
       id="clipPath184">
      <path
         d="M 0,822.047 H 2976.378 V 0 H 0 Z"
         transform="translate(-197.4705,-317.71661)"
         id="path184" />
    </clipPath>
    <clipPath
       clipPathUnits="userSpaceOnUse"
       id="clipPath186">
      <path
         d="M 0,822.047 H 2976.378 V 0 H 0 Z"
         transform="translate(-527.66881,-204.03101)"
         id="path186" />
    </clipPath>
    <clipPath
       clipPathUnits="userSpaceOnUse"
       id="clipPath188">
      <path
         d="M 0,822.047 H 2976.378 V 0 H 0 Z"
         transform="translate(-547.53641,-202.74191)"
         id="path188" />
    </clipPath>
    <clipPath
       clipPathUnits="userSpaceOnUse"
       id="clipPath190">
      <path
         d="M 0,822.047 H 2976.378 V 0 H 0 Z"
         transform="translate(-547.53742,-206.66481)"
         id="path190" />
    </clipPath>
    <clipPath
       clipPathUnits="userSpaceOnUse"
       id="clipPath192">
      <path
         d="M 0,822.047 H 2976.378 V 0 H 0 Z"
         transform="translate(-551.08141,-266.51541)"
         id="path192" />
    </clipPath>
    <clipPath
       clipPathUnits="userSpaceOnUse"
       id="clipPath194">
      <path
         d="M 0,822.047 H 2976.378 V 0 H 0 Z"
         transform="translate(-548.90311,-319.28781)"
         id="path194" />
    </clipPath>
    <clipPath
       clipPathUnits="userSpaceOnUse"
       id="clipPath196">
      <path
         d="M 0,822.047 H 2976.378 V 0 H 0 Z"
         transform="translate(-533.28061,-324.40891)"
         id="path196" />
    </clipPath>
    <clipPath
       clipPathUnits="userSpaceOnUse"
       id="clipPath198">
      <path
         d="M 0,822.047 H 2976.378 V 0 H 0 Z"
         transform="translate(-552.05302,-315.06911)"
         id="path198" />
    </clipPath>
    <clipPath
       clipPathUnits="userSpaceOnUse"
       id="clipPath200">
      <path
         d="M 0,822.047 H 2976.378 V 0 H 0 Z"
         transform="translate(-628.35682,-304.57101)"
         id="path200" />
    </clipPath>
    <clipPath
       clipPathUnits="userSpaceOnUse"
       id="clipPath202">
      <path
         d="M 0,822.047 H 2976.378 V 0 H 0 Z"
         transform="translate(-580.74881,-254.07201)"
         id="path202" />
    </clipPath>
    <clipPath
       clipPathUnits="userSpaceOnUse"
       id="clipPath204">
      <path
         d="M 0,822.047 H 2976.378 V 0 H 0 Z"
         transform="translate(-628.35142,-314.49581)"
         id="path204" />
    </clipPath>
    <clipPath
       clipPathUnits="userSpaceOnUse"
       id="clipPath206">
      <path
         d="M 0,822.047 H 2976.378 V 0 H 0 Z"
         transform="translate(-625.05551,-324.56131)"
         id="path206" />
    </clipPath>
    <clipPath
       clipPathUnits="userSpaceOnUse"
       id="clipPath208">
      <path
         d="M 0,822.047 H 2976.378 V 0 H 0 Z"
         transform="translate(-621.75232,-322.78491)"
         id="path208" />
    </clipPath>
    <clipPath
       clipPathUnits="userSpaceOnUse"
       id="clipPath210">
      <path
         d="M 0,822.047 H 2976.378 V 0 H 0 Z"
         transform="translate(-623.51792,-323.47731)"
         id="path210" />
    </clipPath>
    <clipPath
       clipPathUnits="userSpaceOnUse"
       id="clipPath212">
      <path
         d="M 0,822.047 H 2976.378 V 0 H 0 Z"
         transform="translate(-618.07751,-322.27711)"
         id="path212" />
    </clipPath>
    <clipPath
       clipPathUnits="userSpaceOnUse"
       id="clipPath214">
      <path
         d="M 0,822.047 H 2976.378 V 0 H 0 Z"
         transform="translate(-622.75132,-323.12381)"
         id="path214" />
    </clipPath>
    <clipPath
       clipPathUnits="userSpaceOnUse"
       id="clipPath216">
      <path
         d="M 0,822.047 H 2976.378 V 0 H 0 Z"
         transform="translate(-624.42761,-324.03881)"
         id="path216" />
    </clipPath>
    <clipPath
       clipPathUnits="userSpaceOnUse"
       id="clipPath218">
      <path
         d="M 0,822.047 H 2976.378 V 0 H 0 Z"
         transform="translate(-617.34842,-315.99981)"
         id="path218" />
    </clipPath>
    <clipPath
       clipPathUnits="userSpaceOnUse"
       id="clipPath220">
      <path
         d="M 0,822.047 H 2976.378 V 0 H 0 Z"
         transform="translate(-394.30301,-647.07252)"
         id="path220" />
    </clipPath>
    <clipPath
       clipPathUnits="userSpaceOnUse"
       id="clipPath222">
      <path
         d="M 0,822.047 H 2976.378 V 0 H 0 Z"
         transform="translate(-337.46121,-588.52662)"
         id="path222" />
    </clipPath>
    <clipPath
       clipPathUnits="userSpaceOnUse"
       id="clipPath224">
      <path
         d="M 0,822.047 H 2976.378 V 0 H 0 Z"
         transform="translate(-412.65221,-647.06131)"
         id="path224" />
    </clipPath>
    <clipPath
       clipPathUnits="userSpaceOnUse"
       id="clipPath226">
      <path
         d="M 0,822.047 H 2976.378 V 0 H 0 Z"
         transform="translate(-486.77371,-576.19461)"
         id="path226" />
    </clipPath>
    <clipPath
       clipPathUnits="userSpaceOnUse"
       id="clipPath228">
      <path
         d="M 0,822.047 H 2976.378 V 0 H 0 Z"
         transform="translate(-254.35531,-657.60232)"
         id="path228" />
    </clipPath>
    <clipPath
       clipPathUnits="userSpaceOnUse"
       id="clipPath230">
      <path
         d="M 0,822.047 H 2976.378 V 0 H 0 Z"
         transform="translate(-532.27132,-687.16771)"
         id="path230" />
    </clipPath>
    <clipPath
       clipPathUnits="userSpaceOnUse"
       id="clipPath232">
      <path
         d="M 0,822.047 H 2976.378 V 0 H 0 Z"
         transform="translate(-326.53351,-673.78981)"
         id="path232" />
    </clipPath>
    <clipPath
       clipPathUnits="userSpaceOnUse"
       id="clipPath234">
      <path
         d="M 0,822.047 H 2976.378 V 0 H 0 Z"
         transform="translate(-226.1629,-611.85622)"
         id="path234" />
    </clipPath>
    <clipPath
       clipPathUnits="userSpaceOnUse"
       id="clipPath236">
      <path
         d="M 0,822.047 H 2976.378 V 0 H 0 Z"
         transform="translate(-227.53891,-613.06522)"
         id="path236" />
    </clipPath>
    <clipPath
       clipPathUnits="userSpaceOnUse"
       id="clipPath238">
      <path
         d="M 0,822.047 H 2976.378 V 0 H 0 Z"
         transform="translate(-224.41291,-610.31812)"
         id="path238" />
    </clipPath>
    <clipPath
       clipPathUnits="userSpaceOnUse"
       id="clipPath240">
      <path
         d="M 0,822.047 H 2976.378 V 0 H 0 Z"
         transform="translate(-233.8831,-618.44602)"
         id="path240" />
    </clipPath>
    <clipPath
       clipPathUnits="userSpaceOnUse"
       id="clipPath242">
      <path
         d="M 0,822.047 H 2976.378 V 0 H 0 Z"
         transform="translate(-198.8812,-583.98361)"
         id="path242" />
    </clipPath>
    <clipPath
       clipPathUnits="userSpaceOnUse"
       id="clipPath244">
      <path
         d="M 0,822.047 H 2976.378 V 0 H 0 Z"
         transform="translate(-180.3778,-559.37041)"
         id="path244" />
    </clipPath>
    <clipPath
       clipPathUnits="userSpaceOnUse"
       id="clipPath246">
      <path
         d="M 0,822.047 H 2976.378 V 0 H 0 Z"
         transform="translate(-191.6419,-575.03491)"
         id="path246" />
    </clipPath>
    <clipPath
       clipPathUnits="userSpaceOnUse"
       id="clipPath248">
      <path
         d="M 0,822.047 H 2976.378 V 0 H 0 Z"
         transform="translate(-163.26741,-529.72242)"
         id="path248" />
    </clipPath>
    <clipPath
       clipPathUnits="userSpaceOnUse"
       id="clipPath250">
      <path
         d="M 0,822.047 H 2976.378 V 0 H 0 Z"
         transform="translate(-371.80691,-780.57742)"
         id="path250" />
    </clipPath>
    <clipPath
       clipPathUnits="userSpaceOnUse"
       id="clipPath252">
      <path
         d="M 0,822.047 H 2976.378 V 0 H 0 Z"
         transform="translate(-390.88211,-800.91042)"
         id="path252" />
    </clipPath>
    <clipPath
       clipPathUnits="userSpaceOnUse"
       id="clipPath254">
      <path
         d="M 0,822.047 H 2976.378 V 0 H 0 Z"
         transform="translate(-406.84501,-806.66042)"
         id="path254" />
    </clipPath>
    <clipPath
       clipPathUnits="userSpaceOnUse"
       id="clipPath256">
      <path
         d="M 0,822.047 H 2976.378 V 0 H 0 Z"
         transform="translate(-403.95001,-437.64331)"
         id="path256" />
    </clipPath>
    <clipPath
       clipPathUnits="userSpaceOnUse"
       id="clipPath258">
      <path
         d="M 0,822.047 H 2976.378 V 0 H 0 Z"
         transform="translate(-383.38461,-443.52911)"
         id="path258" />
    </clipPath>
    <clipPath
       clipPathUnits="userSpaceOnUse"
       id="clipPath260">
      <path
         d="M 0,822.047 H 2976.378 V 0 H 0 Z"
         transform="translate(-588.21271,-641.42902)"
         id="path260" />
    </clipPath>
    <clipPath
       clipPathUnits="userSpaceOnUse"
       id="clipPath262">
      <path
         d="M 0,822.047 H 2976.378 V 0 H 0 Z"
         transform="translate(-603.90412,-620.69701)"
         id="path262" />
    </clipPath>
    <clipPath
       clipPathUnits="userSpaceOnUse"
       id="clipPath264">
      <path
         d="M 0,822.047 H 2976.378 V 0 H 0 Z"
         transform="translate(-631.86311,-588.30402)"
         id="path264" />
    </clipPath>
    <clipPath
       clipPathUnits="userSpaceOnUse"
       id="clipPath266">
      <path
         d="M 0,822.047 H 2976.378 V 0 H 0 Z"
         transform="translate(-644.45252,-572.44311)"
         id="path266" />
    </clipPath>
    <clipPath
       clipPathUnits="userSpaceOnUse"
       id="clipPath268">
      <path
         d="M 0,822.047 H 2976.378 V 0 H 0 Z"
         transform="translate(-651.64781,-553.33572)"
         id="path268" />
    </clipPath>
    <clipPath
       clipPathUnits="userSpaceOnUse"
       id="clipPath270">
      <path
         d="M 0,822.047 H 2976.378 V 0 H 0 Z"
         transform="translate(-668.23712,-517.60572)"
         id="path270" />
    </clipPath>
    <clipPath
       clipPathUnits="userSpaceOnUse"
       id="clipPath272">
      <path
         d="M 0,822.047 H 2976.378 V 0 H 0 Z"
         transform="translate(-699.71122,-495.90311)"
         id="path272" />
    </clipPath>
    <clipPath
       clipPathUnits="userSpaceOnUse"
       id="clipPath274">
      <path
         d="M 0,822.047 H 2976.378 V 0 H 0 Z"
         transform="translate(-689.36992,-400.57101)"
         id="path274" />
    </clipPath>
    <clipPath
       clipPathUnits="userSpaceOnUse"
       id="clipPath276">
      <path
         d="M 0,822.047 H 2976.378 V 0 H 0 Z"
         transform="translate(-709.80112,-363.06421)"
         id="path276" />
    </clipPath>
    <clipPath
       clipPathUnits="userSpaceOnUse"
       id="clipPath278">
      <path
         d="M 0,822.047 H 2976.378 V 0 H 0 Z"
         transform="translate(-706.98762,-323.34251)"
         id="path278" />
    </clipPath>
    <clipPath
       clipPathUnits="userSpaceOnUse"
       id="clipPath280">
      <path
         d="M 0,822.047 H 2976.378 V 0 H 0 Z"
         transform="translate(-700.74882,-301.04571)"
         id="path280" />
    </clipPath>
    <clipPath
       clipPathUnits="userSpaceOnUse"
       id="clipPath282">
      <path
         d="M 0,822.047 H 2976.378 V 0 H 0 Z"
         transform="translate(-680.44661,-258.51831)"
         id="path282" />
    </clipPath>
    <clipPath
       clipPathUnits="userSpaceOnUse"
       id="clipPath284">
      <path
         d="M 0,822.047 H 2976.378 V 0 H 0 Z"
         transform="translate(-662.97491,-228.21071)"
         id="path284" />
    </clipPath>
    <clipPath
       clipPathUnits="userSpaceOnUse"
       id="clipPath286">
      <path
         d="M 0,822.047 H 2976.378 V 0 H 0 Z"
         transform="translate(-620.63122,-191.08181)"
         id="path286" />
    </clipPath>
    <clipPath
       clipPathUnits="userSpaceOnUse"
       id="clipPath288">
      <path
         d="M 0,822.047 H 2976.378 V 0 H 0 Z"
         transform="translate(-614.00861,-175.2869)"
         id="path288" />
    </clipPath>
    <clipPath
       clipPathUnits="userSpaceOnUse"
       id="clipPath290">
      <path
         d="M 0,822.047 H 2976.378 V 0 H 0 Z"
         transform="translate(-592.64141,-163.2761)"
         id="path290" />
    </clipPath>
    <clipPath
       clipPathUnits="userSpaceOnUse"
       id="clipPath292">
      <path
         d="M 0,822.047 H 2976.378 V 0 H 0 Z"
         transform="translate(-558.93391,-155.06621)"
         id="path292" />
    </clipPath>
    <clipPath
       clipPathUnits="userSpaceOnUse"
       id="clipPath294">
      <path
         d="M 0,822.047 H 2976.378 V 0 H 0 Z"
         transform="translate(-531.42172,-126.8025)"
         id="path294" />
    </clipPath>
    <clipPath
       clipPathUnits="userSpaceOnUse"
       id="clipPath296">
      <path
         d="M 0,822.047 H 2976.378 V 0 H 0 Z"
         transform="translate(-501.06721,-110.3259)"
         id="path296" />
    </clipPath>
    <clipPath
       clipPathUnits="userSpaceOnUse"
       id="clipPath298">
      <path
         d="M 0,822.047 H 2976.378 V 0 H 0 Z"
         transform="translate(-460.77131,-106.5945)"
         id="path298" />
    </clipPath>
    <clipPath
       clipPathUnits="userSpaceOnUse"
       id="clipPath300">
      <path
         d="M 0,822.047 H 2976.378 V 0 H 0 Z"
         transform="translate(-349.58671,-120.1277)"
         id="path300" />
    </clipPath>
    <clipPath
       clipPathUnits="userSpaceOnUse"
       id="clipPath302">
      <path
         d="M 0,822.047 H 2976.378 V 0 H 0 Z"
         transform="translate(-316.24441,-139.07981)"
         id="path302" />
    </clipPath>
    <clipPath
       clipPathUnits="userSpaceOnUse"
       id="clipPath304">
      <path
         d="M 0,822.047 H 2976.378 V 0 H 0 Z"
         transform="translate(-276.91051,-120.4431)"
         id="path304" />
    </clipPath>
    <clipPath
       clipPathUnits="userSpaceOnUse"
       id="clipPath306">
      <path
         d="M 0,822.047 H 2976.378 V 0 H 0 Z"
         transform="translate(-223.00131,-152.43431)"
         id="path306" />
    </clipPath>
    <clipPath
       clipPathUnits="userSpaceOnUse"
       id="clipPath308">
      <path
         d="M 0,822.047 H 2976.378 V 0 H 0 Z"
         transform="translate(-213.2713,-196.2195)"
         id="path308" />
    </clipPath>
    <clipPath
       clipPathUnits="userSpaceOnUse"
       id="clipPath310">
      <path
         d="M 0,822.047 H 2976.378 V 0 H 0 Z"
         transform="translate(-187.89291,-215.99001)"
         id="path310" />
    </clipPath>
    <clipPath
       clipPathUnits="userSpaceOnUse"
       id="clipPath312">
      <path
         d="M 0,822.047 H 2976.378 V 0 H 0 Z"
         transform="translate(-148.7904,-260.30351)"
         id="path312" />
    </clipPath>
    <clipPath
       clipPathUnits="userSpaceOnUse"
       id="clipPath314">
      <path
         d="M 0,822.047 H 2976.378 V 0 H 0 Z"
         transform="translate(-118.0701,-290.35131)"
         id="path314" />
    </clipPath>
    <clipPath
       clipPathUnits="userSpaceOnUse"
       id="clipPath316">
      <path
         d="M 0,822.047 H 2976.378 V 0 H 0 Z"
         transform="translate(-96.150205,-334.55931)"
         id="path316" />
    </clipPath>
    <clipPath
       clipPathUnits="userSpaceOnUse"
       id="clipPath318">
      <path
         d="M 0,822.047 H 2976.378 V 0 H 0 Z"
         transform="translate(-96.2161,-370.78981)"
         id="path318" />
    </clipPath>
    <clipPath
       clipPathUnits="userSpaceOnUse"
       id="clipPath320">
      <path
         d="M 0,822.047 H 2976.378 V 0 H 0 Z"
         transform="translate(-98.804005,-427.20141)"
         id="path320" />
    </clipPath>
    <clipPath
       clipPathUnits="userSpaceOnUse"
       id="clipPath322">
      <path
         d="M 0,822.047 H 2976.378 V 0 H 0 Z"
         transform="translate(-100.6507,-476.02611)"
         id="path322" />
    </clipPath>
    <clipPath
       clipPathUnits="userSpaceOnUse"
       id="clipPath324">
      <path
         d="M 0,822.047 H 2976.378 V 0 H 0 Z"
         transform="translate(-111.59361,-516.39822)"
         id="path324" />
    </clipPath>
    <clipPath
       clipPathUnits="userSpaceOnUse"
       id="clipPath326">
      <path
         d="M 0,822.047 H 2976.378 V 0 H 0 Z"
         transform="translate(-127.6414,-557.56962)"
         id="path326" />
    </clipPath>
    <clipPath
       clipPathUnits="userSpaceOnUse"
       id="clipPath328">
      <path
         d="M 0,822.047 H 2976.378 V 0 H 0 Z"
         transform="translate(-152.02821,-603.89041)"
         id="path328" />
    </clipPath>
    <clipPath
       clipPathUnits="userSpaceOnUse"
       id="clipPath330">
      <path
         d="M 0,822.047 H 2976.378 V 0 H 0 Z"
         transform="translate(-172.7445,-618.42112)"
         id="path330" />
    </clipPath>
    <clipPath
       clipPathUnits="userSpaceOnUse"
       id="clipPath332">
      <path
         d="M 0,822.047 H 2976.378 V 0 H 0 Z"
         transform="translate(-210.31041,-662.13892)"
         id="path332" />
    </clipPath>
  </defs>
  <sodipodi:namedview
     id="namedview2"
     pagecolor="#ffffff"
     bordercolor="#666666"
     borderopacity="1.0"
     inkscape:showpageshadow="2"
     inkscape:pageopacity="0.0"
     inkscape:pagecheckerboard="0"
     inkscape:deskcolor="#d1d1d1"
     inkscape:zoom="3.0543878"
     inkscape:cx="38.632947"
     inkscape:cy="38.632947"
     inkscape:window-width="752"
     inkscape:window-height="457"
     inkscape:window-x="47"
     inkscape:window-y="38"
     inkscape:window-maximized="0"
     inkscape:current-layer="g1" />
  <!-- Created with Method Draw - http://github.com/duopixel/Method-Draw/ -->
  <g
     id="g1">
    <title
       id="title1">background</title>
    <rect
       fill="#fff"
       id="canvas_background"
       height="58"
       width="58"
       y="-1"
       x="-1" />
    <g
       display="none"
       overflow="visible"
       y="0"
       x="0"
       height="100%"
       width="100%"
       id="canvasGrid">
      <rect
         fill="url(#gridpattern)"
         stroke-width="0"
         y="0"
         x="0"
         height="100%"
         width="100%"
         id="rect1" />
    </g>
    <path
       style="fill:#4f3599;fill-opacity:1;fill-rule:nonzero;stroke:none;stroke-width:1.33333"
       d="m 4.7080877,17.290756 c -0.2176645,0.53392 -1.1469083,1.226032 -1.1469083,2.452065 l 0.3163787,0.395366 c 0.5141236,0 0.8305152,-1.364438 0.8898449,-2.115882 l 0.1979233,-0.118451 c 0.040518,0.494081 0.3953661,0.751395 0.7712401,0.751395 0.4945817,0 0.9293804,-0.415104 0.9293804,-1.048042 L 6.2113554,17.11313 5.1237784,17.13325 c 0,-0.771187 0.2571502,-1.70062 0.7316468,-2.728871 H 5.5193036 c -0.4348485,0.889849 -0.7119087,1.99722 -0.8107755,2.887068 m 46.5887739,6.466297 c -0.336199,-0.771236 -0.77121,-1.344691 -0.96895,-1.661086 -0.07912,-0.533915 0.395514,-1.186444 0.395514,-1.997219 0,-0.514124 -0.257075,-0.909638 -0.613008,-0.909638 -0.83053,0 -0.83053,1.404022 -0.138396,2.570674 l -0.09886,0.07898 c -0.316378,-0.355866 -0.850306,-0.711909 -1.423764,-0.711909 -0.533912,0 -0.830527,0.316379 -0.830527,0.771236 0,0.336123 0.237257,0.751444 0.949177,0.751444 0.67233,0 1.028269,-0.434847 1.581959,-0.336122 0.395464,0.514124 0.672328,0.968969 0.968946,1.581963 l -0.158212,0.09871 c -0.415262,-0.375609 -0.850306,-0.652579 -1.502866,-0.652579 -0.494381,0 -0.889848,0.336123 -0.889848,0.830568 0,0.810723 0.889848,0.870054 1.522634,0.612989 l 1.285341,-0.197922 c 0.217514,0.355866 0.533915,1.166701 0.751429,1.819227 l -0.138396,0.118451 c -0.474588,-0.573452 -1.067828,-0.751441 -1.542416,-0.751441 -0.672328,0 -1.10737,0.375609 -1.10737,0.92943 0,0.632786 0.613008,0.949176 1.206243,0.949176 0.909631,0 1.542413,-0.514172 1.799479,-0.375607 0.118644,0.375607 0.118644,0.276893 0.355942,1.443507 l 0.336199,-0.07898 c -0.09886,-0.553712 -0.17799,-0.929385 -0.336199,-1.483095 l 0.375723,-0.632783 c 0.751433,-1.087577 0.850306,-2.511343 0.07912,-2.511343 -0.672336,0 -0.692108,1.344642 -0.613011,2.214745 l -0.138396,0.05923 c -0.138396,-0.53392 -0.593238,-1.56222 -0.692108,-1.898354 0.09886,-0.276893 0.197732,-0.395363 0.435053,-0.929434 0.435049,-1.048043 0.435049,-2.135622 -0.158213,-2.135622 -0.632785,0 -0.751433,1.423766 -0.533912,2.353147 z m -37.116751,8.344797 c 1.483096,1.898354 0.771187,3.183718 -0.355864,3.183718 -0.731653,0 -1.067836,-0.632787 -1.067836,-1.166703 0,-0.988715 0.968969,-2.056551 1.008505,-2.590469 -0.257152,-0.415105 -0.830515,-1.384227 -1.14691,-2.135621 l -0.138203,0.09871 c 0.157939,1.542424 -0.118451,2.807995 -1.34469,2.807995 -0.53392,0 -1.087579,-0.553712 -1.087579,-1.226033 0,-1.661084 1.997219,-2.175208 1.898354,-3.104593 -0.257152,-0.514171 -0.652579,-1.621541 -0.850311,-2.452059 l -0.197922,0.04052 c -0.02012,1.621546 -0.514123,2.966188 -1.5621667,2.966188 -0.6327863,0 -1.245825,-0.474334 -1.245825,-1.403974 0,-0.81077 0.7514442,-1.680824 1.4040216,-2.27407 0.7316491,-0.692118 0.9689211,-0.949176 1.1073711,-1.542427 -0.09871,-1.028247 -0.07898,-1.898354 -0.05922,-2.887066 l -0.237409,-0.02012 c -0.237412,1.384222 -1.0678393,3.163916 -2.4322772,2.728917 -0.5339162,-0.178179 -0.7909796,-0.711909 -0.7909796,-1.344695 0,-0.949177 0.7316515,-2.096085 2.4718074,-2.827733 0.4945874,-0.257152 0.8305184,-0.455101 0.9887124,-0.88985 0.138203,-1.384226 0.395366,-2.155466 0.652579,-3.144178 l -0.217666,-0.05922 c -0.830519,2.096135 -1.7994881,2.788198 -2.7881998,2.788198 -0.5339195,0 -0.9294335,-0.316379 -1.067839,-0.652525 -0.4545897,-1.107374 0.7514442,-2.175208 2.1554175,-2.748663 0.9293843,-0.395366 1.9181453,-0.632787 2.4124763,-1.186497 0.316381,-0.830519 0.731652,-1.700572 0.751444,-1.740156 l 0.395367,0.178179 c -0.04052,0.02012 -0.474338,1.067836 -0.593251,1.581962 0.237409,0.652578 1.562219,0.909638 2.511396,1.740156 1.245776,1.146909 0.336123,2.827738 -0.929434,2.827738 -1.305106,0 -1.957684,-1.344642 -1.957684,-2.610213 l -0.217664,-0.04052 c -0.217666,0.92938 -0.494587,1.839022 -0.573455,3.005723 0.316379,1.028251 2.372941,0.929384 3.322118,2.096086 0.870102,1.107373 0.04052,2.55093 -1.067786,2.55093 -1.38423,0 -1.937942,-1.502888 -2.115878,-2.234535 l -0.237408,0.02012 c -0.04052,0.810723 -0.04052,1.937888 0.05923,2.807942 0.336123,0.474338 1.127117,0.553711 1.898352,0.672373 1.522631,0.217665 2.115882,0.850258 2.115882,1.641241 0,0.692113 -0.514177,1.384226 -1.226032,1.384226 -0.790983,0 -1.641294,-0.494077 -2.175209,-1.562167 l -0.217666,0.05923 c 0.118467,0.474334 0.53392,1.878558 0.810776,2.392685 0.593197,0.395362 1.621498,0.02012 2.392685,0.02012 0.771237,0 1.581962,0.355866 1.581962,1.265568 0,0.59325 -0.434851,1.166705 -1.166706,1.166705 -0.652524,0 -1.6017,-0.593251 -1.95763,-1.14691 l -0.197924,0.118451 c 0.237409,0.494582 0.771187,1.542424 1.107372,2.056547 1.107374,0.138686 1.324849,-0.395362 2.293818,-0.395362 0.474337,0 1.186477,0.296637 1.186477,1.067835 0,0.494081 -0.474588,1.087582 -1.186477,1.087582 -0.850311,0 -1.502836,-0.672322 -1.898354,-1.14691 z M 26.282546,11.893032 c -0.593239,0.415104 -1.206252,1.008455 -1.206252,1.641239 0,0.593248 0.415261,0.810776 0.731664,0.810776 1.483085,0 0.692102,-1.957684 1.16669,-2.788202 l 1.364444,-0.672321 0.07912,0.15794 c -0.613008,0.454594 -0.929402,0.968919 -0.929402,1.463303 0,0.553659 0.454795,0.909637 0.889853,0.909637 1.403991,0 0.613012,-2.155412 1.107374,-2.867321 0.573461,-0.197922 1.305118,-0.355866 1.740156,-0.474334 l 0.01974,0.157939 c -0.810753,0.395363 -1.226018,0.870104 -1.226018,1.542424 0,0.514124 0.395514,0.870054 0.949177,0.870054 0.771206,0 1.048046,-0.949178 1.206244,-1.740156 0.118644,-0.632786 0.177989,-0.9095918 0.355942,-1.1073738 0.415256,-0.04052 1.581957,-0.217665 2.056546,-0.296636 l 0.01974,0.178179 c -1.0085,0.316378 -1.720383,0.9689188 -1.720383,1.7796938 0,0.514124 0.415259,1.048043 1.107375,1.048043 1.661059,0 1.146924,-2.392738 2.0961,-3.0452618 l 1.087598,-0.04052 0.03949,-0.3953624 c -0.435049,0 -0.790979,0 -1.265568,0 -0.692109,-0.2374074 -1.028274,-2.432272 -2.728879,-2.432272 -0.533916,0 -1.02828,0.3953629 -1.02828,1.0283003 0,0.8502612 0.870082,1.3446404 2.37294,1.3446404 V 9.1436229 C 33.935165,9.2028482 33.025542,9.3415442 32.471854,9.4205162 31.48313,9.2225943 30.929442,7.4826248 29.663871,7.5221635 c -0.553682,0 -1.048048,0.3558643 -1.048048,0.9887599 0,0.9689208 1.107374,1.1667058 2.471812,1.1073748 l 0.03949,0.138203 c -0.553685,0.138203 -1.384211,0.3558658 -1.937904,0.5141228 -0.830525,-0.09871 -1.324886,-1.3644325 -2.392714,-1.3644325 -0.533908,0 -0.988723,0.3558647 -0.988723,0.8898447 0,0.8701068 1.028273,1.1469628 2.412487,0.7316518 l 0.05934,0.157939 c -0.494384,0.197922 -1.305121,0.53392 -1.502866,0.67237 l -1.166696,-0.257152 c -0.47459,-0.276893 -0.79098,-0.455099 -1.265568,-0.455099 -0.514135,0 -0.870079,0.336122 -0.870079,0.810776 0,0.454591 0.375721,0.790978 1.067826,0.790978 l 1.661059,-0.514122 z m -1.502866,5.853257 c -1.502861,0.09871 -2.412492,0.889845 -2.412492,1.858764 0,0.711909 0.51414,1.127167 1.127148,1.127167 1.581958,0 1.799479,-2.471809 2.610239,-2.807994 0.395465,0 1.957674,0.395366 2.550912,0.55371 l -0.05934,0.177687 c -1.819257,-0.11845 -3.005728,0.573453 -3.005728,1.720416 0,0.771187 0.573463,1.22598 1.265572,1.22598 1.522635,0 1.680831,-2.452012 3.144147,-2.768407 l 2.768434,1.087582 -0.09886,0.217665 c -1.997227,-0.771187 -3.697833,0.138701 -3.697833,1.404023 0,0.949176 0.889853,1.680828 1.898354,1.403972 1.364441,-0.395367 2.115871,-1.99722 3.500088,-2.155416 0.454796,0.197921 2.333396,1.661032 2.630009,1.898352 l -0.118643,0.197922 c -0.830535,-0.434847 -2.906857,-1.067834 -3.776934,-0.276893 -1.463311,1.206239 -0.514134,3.420984 1.502861,3.144177 1.522636,-0.178179 2.471813,-1.878609 3.994455,-1.483092 0.830525,0.830515 1.957673,2.175205 2.689332,3.28258 l -0.177989,0.157939 c -0.870076,-0.731701 -1.779703,-1.839071 -3.440762,-1.839071 -1.127148,0 -2.115874,0.67237 -2.115874,1.997269 0,1.127113 1.127148,1.918096 2.372942,1.918096 1.146923,0.02012 1.997223,-0.395367 2.649783,-0.454595 0.790978,-0.04052 1.364444,0.07898 1.839032,0.296637 0.494381,0.652578 1.384215,2.966189 1.641283,3.895572 l -0.197732,0.09871 c -1.028293,-1.839022 -1.977469,-2.768403 -3.559428,-2.768403 -1.245798,0 -2.234521,0.751444 -2.234521,2.056548 0,2.471807 3.500089,2.630004 4.765656,2.709128 0.751429,0.07898 1.443538,0.138203 1.720386,0.553662 0.07912,0.533916 0.09886,1.008504 0.09886,1.483093 -0.790983,0.810775 -1.305118,1.44356 -1.799484,2.511346 -1.344668,2.827787 -0.909626,5.675318 0,6.565163 3.045278,-4.449284 4.350393,-9.254499 4.805208,-10.836458 -0.613013,0 -1.542416,0.514173 -2.432266,1.28536 -0.03949,-0.474334 -0.03949,-0.830515 -0.118643,-1.28536 0.138396,-0.692116 0.830525,-1.384181 2.135642,-2.531139 1.305118,-1.166701 1.858805,-2.392683 1.858805,-3.401192 0,-1.226033 -0.8503,-1.957679 -1.918128,-1.957679 -1.858806,0 -2.590462,2.63 -2.353167,5.378664 l -0.197734,0.04052 c -0.395514,-1.265567 -1.127143,-3.104593 -1.779706,-4.211963 0.03949,-0.514128 0.197732,-0.949178 0.553685,-1.56217 0.276856,-0.434848 1.680837,-2.155414 1.680837,-3.63851 0,-1.127165 -0.672336,-2.115877 -1.957677,-2.115877 -1.186471,0 -2.096101,1.067834 -2.096101,2.37294 0,0.988712 0.474589,2.036755 0.90963,2.887066 l -0.237256,0.15794 c -0.90963,-1.403969 -1.83903,-2.471808 -2.709114,-3.381445 -0.573458,-1.206242 0.870084,-2.847531 0.870084,-4.52836 0,-1.898353 -2.372942,-2.689332 -3.401223,-1.107373 -0.751428,1.127166 0.03949,2.966192 1.028281,3.915368 l -0.138396,0.157939 c -0.790983,-0.672322 -2.155428,-1.641294 -2.906857,-2.096086 -0.593231,-1.0283 0.237257,-2.689337 -0.138395,-3.875831 -0.257077,-0.751444 -0.889855,-1.107372 -1.522636,-1.107372 -0.790983,0 -1.581963,0.593246 -1.581963,1.621496 0,1.008508 0.65256,1.661087 1.819257,2.432274 l -0.09886,0.197921 c -0.613013,-0.276893 -2.293844,-1.02825 -2.867303,-1.225982 -0.810761,-0.870104 0.197733,-3.856035 -1.937907,-3.856035 -0.75143,0 -1.305119,0.573455 -1.305119,1.384226 0,0.988716 0.672336,1.542374 2.036774,2.036759 l -0.07912,0.178179 c -0.316381,-0.11845 -1.601733,-0.434848 -2.550909,-0.573503 -1.285345,-0.88985 -0.790983,-2.926604 -2.511366,-2.926604 -0.69211,0 -1.206244,0.632786 -1.206244,1.186443 0,0.8899 0.672333,1.483096 2.333395,1.720418 z m 0.810757,31.619424 c 0.533911,-0.09872 2.649782,-0.197924 2.649782,0.90964 0,0.494077 -0.395464,0.870054 -0.870077,0.870054 -1.146924,0 -1.700609,-1.4633 -2.491588,-1.562166 -0.435053,0.04052 -1.819256,0.09871 -2.392714,0.11845 l 0.01974,0.15794 c 1.878581,0.31638 2.333396,0.830515 2.333396,1.384177 0,0.336121 -0.276857,0.830567 -0.889858,0.830567 -1.324891,0 -1.384215,-1.819279 -2.511366,-2.274076 -0.573458,0 -1.898352,-0.11845 -2.491584,-0.197922 l -0.03949,0.197922 c 0.949177,0.336123 2.194971,0.810723 2.194971,1.759899 0,0.415109 -0.336199,0.909642 -0.889853,0.909642 -1.858799,0 -1.700606,-2.550931 -2.66956,-3.025519 -0.870086,-0.177686 -1.918129,-0.533867 -2.62999,-0.79098 l -0.09871,0.217666 c 1.186449,0.494585 1.918097,1.146958 1.918097,1.779743 0,0.514124 -0.336123,0.870054 -0.810723,0.870054 -1.720413,0 -1.38423,-2.66954 -1.997269,-3.203459 -1.680828,-0.711906 -2.887069,-1.522631 -3.816449,-2.155414 l 0.217664,-0.237408 c 0.711858,0.494585 1.918097,1.344695 3.598975,1.957684 0.988712,-0.05922 1.305106,-1.898352 2.748614,-1.898352 0.870098,0 1.265587,0.553712 1.265587,1.067834 0,1.127117 -1.562185,1.344642 -2.807961,1.067839 l -0.07898,0.197923 c 0.61299,0.25715 1.898354,0.652527 2.491569,0.771187 0.197734,-0.04052 0.613013,-0.138203 0.968955,-1.127117 0.237256,-0.593246 0.711878,-1.127166 1.403988,-1.127166 0.731656,0 1.186471,0.434852 1.186471,1.028251 0,0.67237 -0.810753,1.226032 -2.096098,1.226032 l -0.01974,0.197922 c 0.652558,0.07898 1.720379,0.197921 2.412487,0.197921 0.613013,-0.455099 0.474588,-2.37294 1.918128,-2.37294 0.652558,0 0.929403,0.454591 0.929403,0.790979 0,0.830519 -1.087597,1.186444 -1.779703,1.344641 l 0.01974,0.157939 c 0.454797,-0.02012 1.799476,-0.04052 2.333393,-0.118466 0.632781,-0.514122 0.296597,-2.293819 1.483087,-2.293819 0.533912,0 0.850307,0.395363 0.850307,0.830519 0,0.751444 -0.850307,1.14691 -1.60174,1.305103 z M 9.3358013,35.325794 c 0.4545962,0.257152 1.0875817,0.949178 1.0875817,1.56222 0,0.415106 -0.217664,0.751395 -0.6723201,0.751395 -0.2571502,0 -0.7119087,-0.118451 -0.9096408,-0.870053 C 8.623756,36.077239 8.8819396,35.444457 8.6834827,35.068736 8.1888978,34.772098 7.5167817,34.238217 7.1805943,33.961361 l -0.098714,0.138203 c 0.9887647,1.107375 0.7909796,2.471858 0.040517,2.471858 -0.5536624,0 -0.8305184,-0.455096 -0.8305184,-1.10737 0,-0.751444 0.4545913,-1.680878 0.2768946,-2.096139 -0.2768942,-0.296638 -1.008504,-1.225979 -1.3248987,-1.759899 l -0.1184506,0.118451 c 0.5339195,1.087631 0.4743374,2.827787 -0.4545913,2.827787 -0.9293836,0 -0.9293836,-1.14691 -0.6327847,-1.977476 C 4.2754555,31.86492 4.7697495,31.232134 4.7697495,30.915742 4.6118101,30.599363 4.0973779,29.729245 3.9787698,29.234914 l 0.1979218,-0.336123 c 0.098714,0.494582 0.6327863,1.4633 0.7909828,1.700621 0.237409,0.138203 0.6920647,0.05923 1.2062365,-0.178179 1.0875818,-0.553659 1.7796946,0.04052 1.7796946,0.672322 0,1.166704 -1.5424222,1.502886 -2.432272,0.178179 l -0.078978,0.09871 c 0.2966358,0.613038 0.9096408,1.423764 1.3051065,1.759948 0.3361215,0.05923 0.8701021,-0.17818 1.3446902,-0.652579 0.7118605,-0.692113 1.4633047,-0.177685 1.4633047,0.593251 0,0.771187 -0.9096424,1.166701 -2.0960862,0.533916 l -0.098714,0.118451 c 0.4348486,0.375609 0.9096376,0.810726 1.4039686,1.048043 0.5339194,0 0.8107755,-0.31638 1.2260323,-0.731648 l 0.6723224,-0.316381 0.692116,0.672322 c 0,0.514127 -0.573455,1.305107 -1.9180975,0.731652 z M 11.866942,6.8702933 C 10.245394,7.8392124 8.0306466,9.9155562 6.943068,11.457978 l 0.4151057,0.07898 C 8.1689493,10.251646 10.205704,8.2148388 12.104057,7.0086024 Z m 43.16774,22.5429177 c 0.909629,-7.277019 -3.85603,-14.969297 -9.768604,-18.212292 v 0.593196 c 4.587686,2.313661 9.531309,8.878774 9.531309,15.918525 0,0.652528 -0.05934,1.364436 -0.07912,1.700571 z M 27.389932,4.418354 c -0.929405,0.9294334 -0.69211,2.1752086 0.217513,2.1752086 0.949177,0 1.028277,-1.0282505 0.790978,-1.5621667 L 28.477543,4.161289 C 29.308072,3.8054246 31.107555,3.3703109 31.997408,3.3703109 L 31.859012,3.0736734 c -0.988723,0.059225 -2.669559,0.4348486 -3.63851,0.7909797 -0.613012,-0.059225 -1.0876,-0.6921128 -2.234518,-0.6921128 -0.454795,0 -0.949176,0.138203 -0.949176,0.4945817 0,0.5141268 0.949176,0.692063 2.194971,0.5734549 z m 7.01995,-1.1469099 C 33.025668,2.5199999 30.197911,2.6584552 29.921071,4.0030956 31.344835,3.6867169 32.72905,3.3505681 34.409882,3.2714441 M 49.359417,35.207262 c -0.03949,0.909641 0.514135,1.680878 1.344661,1.680878 1.0085,0 1.483088,-0.909641 1.680836,-1.700621 -0.949176,0.02012 -2.036772,0.07898 -3.025497,0.02012 m 3.04527,-0.652399 c 0.05934,-1.008507 -0.514134,-1.562219 -1.048046,-1.562219 -0.850306,0 -1.680832,0.790979 -1.937904,1.562219 0.909631,0.07898 2.155426,0.07898 2.98595,0 m -9.313795,12.991821 c -3.223241,5.299595 -9.867476,7.692333 -15.661413,7.692333 -6.248746,0 -11.825147,-1.839076 -16.412833,-5.774183 l 0.17818,-0.178181 c 4.627225,3.856038 10.065216,5.576451 16.234865,5.576451 5.418219,0 11.963584,-2.313611 15.186825,-7.553874 z M 3.6407583,16.95594 c -1.0283003,2.194951 -1.4830926,5.240213 -1.245825,8.087744 l 0.3361215,-0.177686 c -0.276893,-2.096139 0.020122,-5.220472 1.1469099,-7.850526 z M 30.039714,4.5177239 c 0.553688,0.4551008 1.542416,0.8305682 2.86731,0.6921177 1.265568,-0.1184506 1.779703,-1.2062413 1.72038,-1.4830958 -1.819258,0.1386852 -3.243022,0.4743326 -4.58769,0.7909781 M 11.313244,48.061239 C 9.3358174,46.123298 7.3978796,42.54412 7.3978796,42.54412 c 0.850311,0.31638 1.8983525,1.087628 2.5707241,1.95768 1.0677843,1.344695 1.4237643,2.926653 1.3446403,3.559439 M 6.8244246,42.860511 c -0.138203,0.652578 0.1184506,2.076344 1.0085044,3.243044 0.9689721,1.226033 1.7994873,1.87856 2.827738,2.214748 0,0 -2.3729425,-2.432272 -3.8362424,-5.457792 M 32.55108,1.9075157 c 1.483087,0.7118557 2.827757,0.8107756 3.302345,0.7909797 -0.988728,-0.6327831 -2.115874,-1.2457768 -3.500094,-1.7599486 -0.672331,0 -0.711878,0.5537121 0.197733,0.9689689 m 4.093324,0.6525774 C 36.703726,2.3029429 36.881645,1.9075157 35.457917,1.2945253 34.686711,0.9583877 33.658438,0.7606058 33.2234,0.7606058 c 1.127148,0.4348485 2.333392,1.0677859 3.420988,1.7994873 m 3.065051,9.6499639 c 2.353165,0.771187 4.033996,0.494077 4.983174,-0.514177 C 41.17275,9.8173192 37.257396,8.9670095 36.38732,8.7890186 c 0.09886,1.0283006 1.008496,2.6102624 3.322119,3.4210384 m 2.036774,-4.3899574 c -3.480315,-1.6412891 -5.141375,0.1184505 -5.141375,0.1184505 0.90963,0.1776871 4.449265,0.9293852 8.147098,2.8870689 C 43.901633,9.3029882 43.01178,8.4526785 41.746213,7.8198922 M 48.56842,12.012063 C 48.746409,11.675941 48.983681,9.5797912 46.551419,7.2068487 45.799983,6.4554576 44.79149,6.0599404 44.356448,5.9808695 c 0.03949,0 2.333391,1.5028353 4.211972,6.0311935 M 43.624792,6.0797363 C 43.130408,6.2574218 43.40728,8.8481427 47.83676,12.150518 46.76894,9.5402552 45.246304,7.5232435 43.624792,6.0797363 M 55.825665,30.85719 c -0.237257,1.522632 -0.65256,2.630006 -1.463311,3.91537 0.296597,-0.118451 1.008499,-0.415109 1.463311,-1.700621 0.296599,-0.88985 0.158212,-1.858818 0,-2.214749 m -5.695061,14.870435 c -1.522638,1.878562 -5.260018,4.528358 -7.712055,5.418205 0.533908,0.178179 1.463311,0 2.412487,-0.336123 3.935127,-1.305157 5.299568,-4.449284 5.299568,-5.08207 M 49.73514,45.251784 c 0,0 -1.186471,-0.474338 -4.983178,2.392734 -1.621508,1.225983 -2.412487,2.31361 -2.570685,2.926603 2.590463,-1.048043 5.576409,-3.282583 7.553863,-5.319337 M 32.274249,44.777453 c -0.810759,1.344642 -0.830533,4.152636 1.700606,5.497327 1.680833,0.929385 4.666783,0.533919 6.031224,-0.514172 -2.610235,-1.641241 -5.378669,-3.124337 -7.73183,-4.983155 m 8.285515,4.350368 c 0.474588,-0.612988 1.226026,-2.906807 -0.197732,-4.469026 -1.918126,-2.194953 -6.051001,-1.839023 -7.454988,-0.632787 2.37294,1.819283 4.963399,3.460573 7.652731,5.101813 M 53.334114,32.734755 c 0.415257,-0.692113 0.731655,-1.4633 0.731655,-2.333353 0,-1.443557 -0.810756,-2.23454 -1.720386,-2.155466 0.435053,1.008507 0.929403,2.649798 0.988731,4.488819 m 0.533907,1.858819 c 0.672336,-1.087579 1.226021,-2.590467 1.403993,-4.014231 -0.711883,0.593246 -1.56219,2.590465 -1.403993,4.014231 m -0.593235,-1.562167 c 0,6.466246 -2.966173,10.638676 -3.16392,10.915532 l -0.276856,-0.07898 c 1.581962,-2.471809 3.16392,-6.54537 3.065047,-10.658471 z m -9.729055,14.099195 c 1.206242,0 3.658281,-1.740156 4.943622,-4.66676 1.344671,-2.966189 0.870083,-5.062273 -0.05934,-6.268514 -0.43505,1.581962 -1.858808,6.486038 -4.884305,10.935274 m 9.175373,-14.257391 c -0.05934,-1.740156 -0.553685,-3.500108 -1.008501,-4.449286 -0.593232,0.692113 -0.771202,1.384231 -0.771202,2.076343 0,1.107375 0.613005,2.155418 1.779703,2.372943 M 1.2875588,29.709278 c 0.3361232,5.497274 2.6497967,9.471969 5.4577916,12.892955 l 0.237409,-0.355866 C 4.2736346,39.102239 1.841361,35.028676 1.524971,29.709339 Z m 0,-6.72336 c -1.44350713,1.443557 -1.46329978,4.172428 -1.06778583,5.655521 0.11845055,-1.898353 0.4743374,-3.678044 1.06778583,-5.655521 m 2.4916034,7.929596 C 3.5812405,29.887214 2.9881793,27.514273 2.8893141,25.220458 3.8186977,25.556581 4.3922024,27.534069 4.3130784,29.155567 4.272561,29.887214 4.0756711,30.52 3.7791622,30.915514 M 2.9881793,23.223239 c 1.3248991,-0.217665 3.0057269,0.02012 3.3023757,0.07898 -0.2966359,0.692113 -0.9294335,1.898355 -1.8983526,1.898355 -0.9887615,0 -1.4633496,-1.245776 -1.4040231,-1.977429 m -1.2260323,0.09871 c 0.3163803,2.11588 0.040517,5.319339 -0.98871173,5.556607 0.0789778,-1.680828 0.47433413,-4.033974 0.98871173,-5.556606 m 0.6327863,2.017012 c 0.098714,2.372943 0.6525773,4.646968 0.8898979,5.675269 -0.2571502,-0.05923 -0.5537121,-0.355866 -0.8898979,-1.067839 -0.6723218,-1.522632 -0.3756088,-3.638509 0,-4.60743 M 6.3696291,22.669279 C 6.4683431,21.937628 6.2116897,20.830258 5.04473,20.67206 3.9768958,20.59308 3.3243667,21.81897 3.027718,22.629744 c 1.0678357,-0.217665 2.6893338,-0.07898 3.3419111,0.04052 M 19.262618,2.9946009 C 17.621333,3.212267 15.4066,3.9240343 12.974331,5.2489334 15.307733,2.9550654 19.262618,2.1245486 19.262618,2.9946009 M 17.364284,5.6246065 C 22.050821,2.1245486 26.559409,1.531301 30.632965,1.5708365 V 1.8082439 C 25.946405,1.6897933 21.477363,2.9551538 17.799299,5.8422228 Z m 2.550889,-0.6327863 c 0.731655,1.7599518 1.502866,3.3221185 2.313618,4.923874 C 21.002774,10.133358 19.124194,9.8955742 18.550735,8.1162066 18.135474,6.7913075 19.20329,5.4466655 19.915173,4.9918202 M 20.58751,4.6951844 c 0,0 2.531138,-0.7909829 3.658285,1.1073696 C 25.076321,7.0879176 23.949197,9.2037965 22.96045,9.6585922 22.149699,8.0370939 21.338938,6.3958048 20.58751,4.6951844 M 12.855668,5.9409595 C 16.07892,4.0426054 19.163744,3.6076026 19.14397,3.6273454 17.087428,5.3279658 13.705979,6.3364734 12.855668,5.9409595 m -2.807991,6.7233595 c 0.355866,-0.514127 0.553712,-1.265571 0.553712,-1.740159 0,-0.632782 -0.514127,-0.672322 -0.7514448,-0.672322 l -1.1271655,0.415109 c 0.3756072,0.771187 0.8305666,1.443508 1.3248983,1.997221 M 8.327313,11.062412 c -0.3953661,0.434849 -0.7119087,1.048043 -0.7119087,1.581958 0,1.24583 1.7797444,0.751444 1.9972691,0.494587 C 9.1180918,12.565502 8.6634972,11.932717 8.327313,11.062613 m 3.420986,1.047235 c 1.226032,-1.720363 3.51985,-4.2119681 5.793929,-5.8927926 0.237256,0.4151057 0.395514,1.9774765 -1.206245,3.6978418 -1.384228,1.4830898 -2.887064,2.3334008 -4.587684,2.1949508 m -0.573455,-0.454595 c -0.197922,-0.494581 -0.395366,-1.7599478 1.265568,-3.4605186 1.997219,-2.017012 3.935107,-2.3334068 4.488819,-2.3927349 -2.13567,1.5226312 -4.488819,3.9746957 -5.754387,5.8532535 m 31.896282,1.937892 c -1.641286,1.146958 -1.740159,3.559435 -0.632786,5.180932 1.364443,-1.581958 2.788207,-3.223252 4.152645,-5.022739 -0.276856,-0.197922 -2.175194,-1.10737 -3.519859,-0.157939 m 0.118644,5.892845 c 1.957674,0.692063 3.717602,0.395363 4.469035,-1.008507 0.949177,-1.740156 0.197733,-3.361707 -0.355942,-4.093356 -1.206251,1.759949 -2.669559,3.500108 -4.113096,5.101863 M 37.237631,4.180757 C 36.86191,4.9914827 36.54553,5.7627179 36.268681,6.613029 36.763065,6.7314795 37.731993,6.8504363 38.186809,6.019783 38.483408,5.4660708 38.404322,4.596017 37.237631,4.180757 M 36.6444,3.9828337 C 36.525756,3.9423162 35.141539,3.666455 34.706497,4.5167001 34.508763,4.9717993 34.587854,5.8811878 35.5568,6.3557759 35.853397,5.5647962 36.308228,4.5958241 36.6444,3.9828337 M 4.1944398,16.203472 C 4.5305614,16.104762 5.440215,15.808106 6.2311979,14.68084 7.1210428,13.533878 7.2001668,12.545166 7.1210428,11.932177 6.0927924,13.059289 4.5305774,15.53115 4.1944398,16.203472 m 2.4124794,-4.469029 c -0.4348518,0.05923 -1.08763,0.316381 -1.8192816,1.166653 -0.8700538,0.988762 -1.1469099,2.175209 -1.0875785,3.084846 0.2374073,-0.632781 1.621498,-2.966188 2.9068601,-4.251499 M 4.6096998,41.139123 C 3.2848023,43.136342 4.3920353,45.489491 5.3018127,46.161861 4.589904,44.441448 4.4712461,42.464022 4.6096998,41.139123 m 0.5339163,0 c 1.0282504,1.186445 1.7203633,4.192172 0.771187,5.042481 -0.6723202,-1.522631 -0.771187,-3.28253 -0.771187,-5.042481 M 42.181265,5.5647802 C 39.828098,4.0618918 36.802601,3.4884368 34.904247,3.4884368 L 34.666992,3.1720581 c 2.274068,0 5.734606,0.8700523 7.652732,2.2147473 z M 5.954345,40.071272 C 6.9826453,39.913333 8.9403259,39.280289 9.7905871,38.963898 9.0985225,37.935647 8.0108925,37.559925 7.2594483,37.559925 c -1.0282472,0 -1.6610335,1.127117 -1.3051033,2.511347 m 0.2768947,0.593246 c 0.3361215,0.751444 1.2655662,1.245775 2.0961344,1.245775 1.1271172,0 2.0960869,-0.790978 1.7599019,-2.333352 -0.6525275,0.237408 -2.7288708,0.909588 -3.8560363,1.087577"
       id="path15606" />
  </g>
</svg>
