<?xml version="1.0" encoding="UTF-8" standalone="no"?>
<svg
   width="56"
   height="56"
   version="1.1"
   id="svg2"
   sodipodi:docname="org-uu.svg"
   inkscape:version="1.3.1 (91b66b0, 2023-11-16)"
   xmlns:inkscape="http://www.inkscape.org/namespaces/inkscape"
   xmlns:sodipodi="http://sodipodi.sourceforge.net/DTD/sodipodi-0.dtd"
   xmlns="http://www.w3.org/2000/svg"
   xmlns:svg="http://www.w3.org/2000/svg">
  <defs
     id="defs2" />
  <sodipodi:namedview
     id="namedview2"
     pagecolor="#ffffff"
     bordercolor="#666666"
     borderopacity="1.0"
     inkscape:showpageshadow="2"
     inkscape:pageopacity="0.0"
     inkscape:pagecheckerboard="0"
     inkscape:deskcolor="#d1d1d1"
     inkscape:zoom="3.2558379"
     inkscape:cx="26.721232"
     inkscape:cy="38.085434"
     inkscape:window-width="736"
     inkscape:window-height="457"
     inkscape:window-x="47"
     inkscape:window-y="38"
     inkscape:window-maximized="0"
     inkscape:current-layer="svg2" />
  <!-- Created with Method Draw - http://github.com/duopixel/Method-Draw/ -->
  <g
     id="g1">
    <title
       id="title1">background</title>
    <rect
       fill="#fff"
       id="canvas_background"
       height="58"
       width="58"
       y="-1"
       x="-1" />
    <g
       display="none"
       overflow="visible"
       y="0"
       x="0"
       height="100%"
       width="100%"
       id="canvasGrid">
      <rect
         fill="url(#gridpattern)"
         stroke-width="0"
         y="0"
         x="0"
         height="100%"
         width="100%"
         id="rect1" />
    </g>
  </g>
  <path
     d="m 23.680408,1.0206252 0.525771,-0.68041943 0.886605,-0.10308841 0.680411,0.52577117 h 4.453608 l 0.670098,-0.52577117 0.89691,0.10308841 0.525771,0.68041943 4.319587,1.0618559 0.783507,-0.3505193 0.845358,0.3195864 0.35052,0.783508 3.938143,2.0618539 0.845365,-0.1546403 0.731956,0.5051597 0.15464,0.8453578 3.340208,2.9587638 0.855663,0.051528 0.58763,0.6701064 -0.05153,0.8556705 2.525775,3.659787 0.824739,0.257737 0.412369,0.793814 -0.247416,0.814432 1.577314,4.17526 0.731964,0.432989 0.21649,0.87629 -0.443294,0.731956 0.536076,4.422684 0.608249,0.60824 v 0.896909 l -0.608249,0.608248 -0.536076,4.412371 0.443294,0.731963 -0.21649,0.876283 -0.731964,0.443301 -1.577314,4.164946 0.25773,0.814434 -0.422683,0.804127 -0.814433,0.247423 -2.536081,3.670101 0.05153,0.855671 -0.58763,0.670106 -0.855663,0.05153 -3.329902,2.948451 -0.15464,0.845365 -0.742262,0.515457 -0.845365,-0.164946 -3.938143,2.072168 -0.35052,0.7835 -0.845358,0.319594 -0.783507,-0.350519 -4.319587,1.061856 -0.525771,0.680412 -0.886597,0.103095 -0.680411,-0.525779 h -4.453608 l -0.670106,0.525778 -0.89691,-0.103096 -0.525771,-0.680412 -4.329893,-1.061855 -0.773193,0.350519 -0.845367,-0.319594 -0.350511,-0.7835 -3.93815,-2.061855 L 12.597936,50.95873 11.855667,50.443272 11.701026,49.597907 8.3711321,46.649456 7.5154598,46.597927 6.9175256,45.927821 6.9690536,45.07215 4.4432782,41.412355 3.6288455,41.154626 3.2061705,40.360812 3.4638994,39.536065 1.8865778,35.371119 1.1443084,34.938131 0.9381241,34.061841 1.3814265,33.329885 0.83503568,28.907201 0.23709312,28.298953 v -0.89691 L 0.83503568,26.793804 1.3711207,22.381426 0.92781825,21.639164 1.1443084,20.77318 1.8762732,20.329885 3.4638994,16.164931 3.2061705,15.350498 3.6185398,14.546379 4.4432782,14.298956 6.9690536,10.628855 6.9175256,9.7731841 7.5154598,9.103078 8.3711321,9.0515501 11.701026,6.1030999 l 0.154641,-0.8453657 0.742269,-0.5154654 0.835052,0.1546403 3.948456,-2.0618539 0.350511,-0.783508 0.845367,-0.3195864 0.773193,0.3505193 z"
     fill="#ffd400"
     id="path2"
     style="stroke-width:7.73635" />
  <path
     d="M 30.938139,0 27.989689,16.742271 25.041231,0 M 31.804124,0.10309591 30.659792,17.061858 37.525774,1.5154712 M 38.329892,1.8247442 33.164947,18.010312 43.546389,4.5567041 M 44.257726,5.0515506 35.360823,19.536089 48.65979,8.9587684 M 49.237112,9.608247 37.144329,21.536084 52.587627,14.443299 m 0.402063,0.783508 -14.608245,8.690718 16.690718,-3.185567 m 0.216491,0.835051 -16.257731,4.93815 16.969075,0.907215 m 0,0.865977 -16.969075,0.907215 16.257731,4.938149 M 55.082469,34.969072 38.381445,31.783505 52.98969,40.474232 M 52.587627,41.247425 37.144329,34.15464 49.247418,46.082478 m -0.577323,0.659792 -13.298966,-10.57732 8.89691,14.484537 m -0.72165,0.494847 -10.381442,-13.46392 5.175259,16.195872 m -7.402067,1.814439 -2.94845,-16.742272 -2.948458,16.742272 M 24.195873,55.587629 25.340206,38.628867 18.474224,54.175261 M 17.670098,53.876286 22.845356,37.680414 12.453609,51.144334 M 11.731959,50.649487 20.628862,36.16495 7.3298946,46.74227 M 6.7525716,46.092783 18.855669,34.164954 3.4020577,41.257731 M 3.0103083,40.474232 17.618553,31.783505 0.9278345,34.969072 M 0.71133682,34.13402 16.969067,29.19588 0,28.278351 M 0,27.412374 16.969067,26.505159 0.71133682,21.567009 M 0.91752116,20.731958 17.608247,23.917525 2.9999949,15.226807 M 3.4123711,14.453614 18.865975,21.54639 6.7525716,9.608247 M 7.3298946,8.9587684 20.639175,19.536089 11.742265,5.0515506 M 12.453609,4.5567044 22.83505,18.010312 17.659792,1.8144387 M 18.474224,1.5154715 25.340206,17.061858 24.195873,0.10309616 M 37.525774,54.175261 30.659792,38.628867 31.804124,55.587629"
     fill="#181716"
     id="path3"
     style="stroke-width:7.73635" />
  <path
     d="m 46.391751,6.8453622 -2.103093,2.422679 c 0.432989,0.3814444 0.855671,0.7732018 1.257727,1.1752578 l -0.628859,0.618562 C 44.298964,10.443299 43.659791,9.8556708 42.979379,9.3092797 l 2.587626,-3.1649483 m 8.340206,11.2886646 -3.814435,1.525769 c 0.123712,0.288663 0.237118,0.597935 0.340206,0.886596 l 3.865987,-1.371128 m 1.52577,7.072158 -3.164949,-0.639173 v -0.01025 l 2.927831,-1.329898 -0.185566,-1.07217 -3.824741,1.989691 c 0.05153,0.371139 0.09279,0.742269 0.134021,1.113408 l 4.175261,0.979379 m -1.257735,9.670105 -0.979379,-0.309281 c -0.103096,0.319586 -0.206184,0.628868 -0.319586,0.948454 L 50.432982,35.84536 c -0.103083,0.288661 -0.21649,0.597934 -0.329893,0.886596 l 2.845362,1.154638 c -0.123712,0.319586 -0.257736,0.628868 -0.391749,0.938148 l 0.948446,0.422676 m -2.216495,4.010313 -3.422677,-2.278352 c -0.164947,0.257728 -0.360825,0.536085 -0.536085,0.783508 l 3.319589,2.40206 m -2.979383,3.505154 -0.72165,-0.731956 c -0.23711,0.23711 -0.474227,0.463913 -0.721642,0.690717 l -2.082481,-2.268038 c -0.226805,0.206184 -0.474228,0.432988 -0.711337,0.628868 l 1.98969,2.340201 c -0.257729,0.216499 -0.52577,0.432989 -0.783508,0.649487 l 0.639181,0.804119 m -3.824748,2.536089 -1.979377,-3.60825 c -0.268042,0.15464 -0.556704,0.298967 -0.835052,0.443302 l 1.83505,3.680406 m -7.814435,2.546394 -0.164946,-1.020617 c 0.536085,-0.09279 1.07217,-0.195879 1.670103,-0.340206 l -0.164946,-0.670106 c -0.536085,0.123713 -1.010311,0.216498 -1.484538,0.298967 l -0.134021,-0.7835 c 0.453607,-0.08248 0.907215,-0.175259 1.422681,-0.288661 L 33.62886,51.896909 c -0.546389,0.123713 -1.041236,0.226804 -1.536083,0.30928 l -0.144326,-0.865984 c 0.804119,-0.134021 1.597941,-0.309273 2.391755,-0.536076 l 0.298967,1.041236 c 0.432988,-0.123713 0.855671,-0.247423 1.26804,-0.391758 l 0.206185,-0.80412 0.618562,1.391749 -0.804128,2.577319 m -0.659792,-0.618553 0.432988,-1.63918 c -0.288661,0.09279 -0.587629,0.175261 -0.865977,0.257737 l 0.381436,1.391748 z m -13.391758,1.103094 0.907224,-4.010314 c -0.309281,-0.07214 -0.628867,-0.144326 -0.927834,-0.226804 l -1.061857,3.969076 M 16.164947,53.14433 17.91752,49.432992 C 17.123708,49.06186 16.360818,48.649484 15.608244,48.195876 l -0.453608,0.752583 c 0.494847,0.298968 0.989692,0.577315 1.505158,0.845357 l -1.474233,2.865982 m -4.731956,-3.092785 2.577319,-3.175262 c -0.680411,-0.546391 -1.329898,-1.13402 -1.938146,-1.752573 l -0.62886,0.618553 c 0.402057,0.41237 0.824739,0.804128 1.257728,1.175258 L 9.6082469,48.845363 M 4.4432945,42.845367 7.536079,41.938142 7.54645,41.948392 5.5773792,44.484481 6.2474851,45.340153 8.7010893,41.804066 C 8.4845989,41.505095 8.2681,41.195813 8.0619156,40.88654 L 3.9072125,41.958702 M 0.51545958,32.804063 1.5257721,32.618497 C 1.4639345,32.288597 1.4123678,31.958705 1.3711307,31.628805 L 4.4123723,31.195817 C 4.3711502,30.886535 4.3298956,30.556643 4.2989706,30.257668 l -3.0515475,0.309281 c -0.030912,-0.340206 -0.061838,-0.680412 -0.082479,-1.020618 l -1.02061712,0.06184 M 0.08248943,26.154561 4.2165113,26.39167 c 0.020612,-0.319586 0.041222,-0.628859 0.07214,-0.948446 l -1.5360835,-0.15464 c 0,-0.03091 0.010246,-0.103096 0.020617,-0.15464 0.051529,-0.278348 0.3814436,-0.484541 0.7422697,-0.618562 0.2886616,-0.113404 0.9278346,-0.278348 0.9278346,-0.278348 0.051528,-0.360826 0.1030885,-0.701031 0.1958712,-1.061856 0,0 -1.0824673,0.371139 -1.474226,0.597942 -0.2474227,0.144327 -0.3917495,0.21649 -0.5360763,0.391751 H 2.6082404 C 2.5979946,23.536 2.2267968,23.133936 1.6288542,23.092705 0.90720407,23.041176 0.52576792,23.69064 0.42267076,24.484454 L 0.24741145,24.474208 M 1.6907118,24.144309 c 0.4020628,0.04122 0.453607,0.422682 0.422682,0.670106 -0.020604,0.144326 -0.030912,0.309272 -0.051529,0.443293 L 1.0824784,25.154625 c 0.020617,-0.164955 0.020617,-0.309282 0.041221,-0.463922 0.030913,-0.412368 0.2371094,-0.587629 0.5670101,-0.546389 z m 0.020617,-5.731955 3.3608272,2.969069 C 5.164939,21.041218 5.268027,20.701011 5.381429,20.371112 L 4.6494712,19.78348 c 0.1546404,-0.443294 0.3195865,-0.87629 0.4948461,-1.309279 l 0.9381405,0.04122 C 6.2267925,18.185531 6.381433,17.845317 6.5360655,17.515425 L 2.1030767,17.39171 m 0.6288676,0.865986 1.608246,0.13402 C 4.2267886,18.68037 4.1133864,18.969031 4.0102981,19.257693 L 2.7216384,18.268 Z m 5.2989738,-9.917529 2.9381359,2.865982 c 0.19588,-0.206186 0.402064,-0.402064 0.608249,-0.608249 L 9.7525662,8.6906864 12.649473,9.6494459 C 12.917515,9.4226421 13.195862,9.1958382 13.47421,8.9896537 l -2.443298,-3.288664 -0.814433,0.639181 1.731963,2.1237118 -3.0000027,-1.000006 M 32.350499,4.3298609 c 0.350519,0.2164903 0.742269,0.4123691 1.144333,0.5154576 0.855671,0.2061924 1.711342,0.030917 1.948452,-0.9175212 0.13402,-0.5463904 -0.04122,-0.9999981 -0.969073,-1.4742251 -0.422684,-0.2061926 -0.505153,-0.3608251 -0.463913,-0.525779 0.06184,-0.2474231 0.278347,-0.3711307 0.76288,-0.2577288 0.206185,0.051528 0.546398,0.2061845 0.773203,0.360825 l 0.453607,-0.639173 C 35.639163,1.1442932 35.268024,0.94841432 34.835035,0.83501231 c -0.731955,-0.17525968 -1.659789,0 -1.865975,0.83505209 -0.185572,0.752575 0.21649,1.0927808 0.639174,1.3402039 0.422683,0.247423 0.865977,0.3917578 0.773194,0.7422693 C 34.28864,4.1133627 33.948439,4.0927434 33.639159,4.02058 33.360811,3.9587462 32.999985,3.7628512 32.783488,3.6391357 Z m 5.731962,-0.2989753 c -0.536085,1.0206253 -0.278356,2.2371137 0.927835,2.8659812 1.195876,0.6288674 2.340202,0.1546404 2.876286,-0.8659769 C 42.422667,5.0102724 42.164931,3.8040818 40.969053,3.1752224 39.762871,2.5360413 38.618546,2.9999626 38.082461,4.0308856 Z m 0.938141,0.4948463 c 0.402063,-0.7731943 1.020617,-0.9072155 1.546396,-0.6288595 0.52577,0.278348 0.773194,0.8556634 0.360824,1.6288655 C 40.52576,6.2989322 39.907198,6.4329534 39.381426,6.1545975 38.855656,5.8762494 38.618546,5.2989341 39.020602,4.5257319 Z M 51.86596,29.350472 c -0.175251,0.371139 -0.319586,0.783508 -0.37113,1.195878 -0.103096,0.87629 0.175259,1.701029 1.144332,1.824744 0.556697,0.06184 0.989685,-0.15464 1.340205,-1.144332 0.15464,-0.453608 0.298967,-0.546391 0.463913,-0.525772 0.247424,0.03091 0.402064,0.237118 0.350519,0.72165 -0.02062,0.216499 -0.13402,0.56701 -0.268043,0.814433 l 0.701031,0.381445 c 0.206186,-0.391751 0.35052,-0.783508 0.402064,-1.226803 0.09279,-0.742269 -0.206184,-1.649484 -1.05155,-1.75258 -0.76288,-0.09279 -1.061856,0.350518 -1.257727,0.793813 -0.195878,0.443301 -0.278356,0.907216 -0.649487,0.865985 -0.37113,-0.04122 -0.391749,-0.391759 -0.350511,-0.711345 0.03091,-0.278347 0.175252,-0.659792 0.278348,-0.896909 z M 6.1752484,37.639135 C 6.1546367,37.226767 6.0927717,36.793778 5.9381309,36.402019 5.6185443,35.577281 4.989677,34.979339 4.0721479,35.329858 3.5463768,35.525729 3.2680293,35.927793 3.4123561,36.958723 3.4844957,37.422638 3.4021102,37.577278 3.2474089,37.639135 3.0102995,37.731923 2.7731827,37.618519 2.6082367,37.164908 2.5360908,36.958723 2.4639012,36.597899 2.4639012,36.31955 L 1.6700876,36.3093 c 0,0.443301 0.051529,0.865985 0.2061856,1.278353 0.2680419,0.701031 0.9484537,1.360824 1.742267,1.061857 0.7216501,-0.278356 0.7732022,-0.804127 0.7422693,-1.28866 -0.041222,-0.484541 -0.1752597,-0.927835 0.1752597,-1.061856 0.3505194,-0.134021 0.5257712,0.164946 0.6391731,0.463913 0.1030959,0.257738 0.1546404,0.670106 0.164954,0.917529 z M 14.113391,6.0205763 c 0.536077,1.0206253 1.68041,1.4948523 2.876287,0.8659848 1.195877,-0.6288675 1.453606,-1.8350502 0.917521,-2.8556755 -0.536077,-1.0206173 -1.680409,-1.4948443 -2.876287,-0.8659768 -1.195876,0.6288673 -1.453605,1.83505 -0.917521,2.8556675 z m 0.948455,-0.4948384 c -0.402064,-0.7732021 -0.164955,-1.3505175 0.360817,-1.6288655 0.525779,-0.278356 1.144332,-0.1443348 1.546396,0.6288595 0.402063,0.7732022 0.164946,1.3505175 -0.360826,1.6288656 -0.52577,0.2783559 -1.144332,0.1443347 -1.546387,-0.6288596 z m 5.865975,-0.5257791 c 0.412369,0.030918 0.855671,0.020612 1.257735,-0.082469 C 23.041219,4.7009914 23.721639,4.1546011 23.484521,3.1958335 23.3505,2.6494431 22.97937,2.3195509 21.938132,2.3504758 21.463906,2.3607841 21.31957,2.2576932 21.288645,2.1030527 c -0.06184,-0.2474231 0.07215,-0.4639134 0.556705,-0.5773154 0.206184,-0.051528 0.577316,-0.07214 0.855663,-0.041222 l 0.103096,-0.78350784 c -0.432988,-0.051528 -0.855671,-0.051528 -1.28866,0.051528 -0.731955,0.18557327 -1.474224,0.77320204 -1.26804,1.60825414 0.185565,0.7422615 0.701031,0.8659769 1.185563,0.8865963 0.484541,0.020612 0.948454,-0.061834 1.030932,0.2989672 0.09279,0.3608251 -0.226805,0.5051519 -0.536085,0.5876289 -0.278349,0.07214 -0.680412,0.07214 -0.93814,0.051528 z M 27.999987,3.103051 a 0.99999995,0.99999995 0 0 0 0,-1.9999963 0.99999995,0.99999995 0 0 0 0,1.9999963 z M 48.37112,13.793774 c 0.30928,0.453607 0.93814,0.567008 1.391748,0.257736 0.453608,-0.309281 0.56701,-0.938148 0.257737,-1.391756 -0.309282,-0.453608 -0.938149,-0.567009 -1.391756,-0.257729 -0.463913,0.309273 -0.577316,0.93814 -0.257729,1.391749 z M 26.99998,53.597891 a 1.0000025,1.0000025 0 0 0 2.000005,0 1.0000025,1.0000025 0 0 0 -2.000005,0 z M 7.6288466,13.793774 C 7.9484326,13.340165 7.824725,12.711298 7.371118,12.402017 6.9175097,12.092736 6.2886424,12.195833 5.9793615,12.659746 c -0.309273,0.453608 -0.195871,1.082475 0.2577367,1.391756 0.4536078,0.319586 1.072161,0.195879 1.3917484,-0.257728 z"
     fill="#ffffff"
     id="path4"
     style="stroke-width:7.73635" />
  <path
     d="m 31.804124,31.659797 c -0.30928,0.319587 -0.752583,0.515466 -1.226809,0.515466 h -1.010304 c -0.56701,0 -1.07217,0.278348 -1.381451,0.701031 h -0.371131 c -0.30928,-0.422683 -0.814432,-0.701031 -1.381442,-0.701031 h -1.010312 c -0.948453,0 -1.721648,-0.773202 -1.721648,-1.721656 v -6.907212"
     fill="#e4002b"
     id="path5"
     style="stroke-width:7.73635" />
  <path
     d="m 23.701027,23.546395 h 8.597936 v 6.907212 c 0,0.474227 -0.185565,0.89691 -0.494839,1.20619"
     fill="#ffffff"
     id="path6"
     style="stroke-width:7.73635" />
</svg>
