<?xml version="1.0" encoding="UTF-8" standalone="no"?>
<svg
   width="56"
   height="56"
   version="1.1"
   id="svg2"
   sodipodi:docname="org-csic.svg"
   inkscape:version="1.3.1 (91b66b0, 2023-11-16)"
   xmlns:inkscape="http://www.inkscape.org/namespaces/inkscape"
   xmlns:sodipodi="http://sodipodi.sourceforge.net/DTD/sodipodi-0.dtd"
   xmlns="http://www.w3.org/2000/svg"
   xmlns:svg="http://www.w3.org/2000/svg">
  <defs
     id="defs2" />
  <sodipodi:namedview
     id="namedview2"
     pagecolor="#ffffff"
     bordercolor="#666666"
     borderopacity="1.0"
     inkscape:showpageshadow="2"
     inkscape:pageopacity="0.0"
     inkscape:pagecheckerboard="0"
     inkscape:deskcolor="#d1d1d1"
     inkscape:zoom="2.8738353"
     inkscape:cx="18.442254"
     inkscape:cy="19.486155"
     inkscape:window-width="744"
     inkscape:window-height="457"
     inkscape:window-x="47"
     inkscape:window-y="38"
     inkscape:window-maximized="0"
     inkscape:current-layer="svg2" />
  <!-- Created with Method Draw - http://github.com/duopixel/Method-Draw/ -->
  <g
     id="g1">
    <title
       id="title1">background</title>
    <rect
       fill="#fff"
       id="canvas_background"
       height="58"
       width="58"
       y="-1"
       x="-1" />
    <g
       display="none"
       overflow="visible"
       y="0"
       x="0"
       height="100%"
       width="100%"
       id="canvasGrid">
      <rect
         fill="url(#gridpattern)"
         stroke-width="0"
         y="0"
         x="0"
         height="100%"
         width="100%"
         id="rect1" />
    </g>
  </g>
  <path
     d="m 47.680189,50.517308 c 0.277091,0 0.809395,-0.21795 0.809395,-0.21795 0.61225,-1.163156 -2.188324,-2.762214 -2.188324,-2.762214 0,0 -0.592534,0.289036 -0.818157,0.383329 -0.765585,0.273824 2.164229,2.59686 2.197086,2.59686 M 36.41985,50.379177 c 0,0 -0.300099,1.704215 0.709726,2.670237 3.629684,1.947368 7.845328,2.076582 10.935047,0.234396 0.192769,-0.628689 0.510393,-1.533355 0.555298,-2.201485 -3.389824,1.558569 -9.184828,0.521363 -12.200071,-0.703148 M 8.7218917,51.017719 c 0.054772,0.920002 0.2398652,1.841126 1.0043498,2.495004 3.1751485,1.420536 7.3305545,0.893704 10.3315585,-0.324192 1.109497,-0.427168 0.897016,-1.178504 0.872921,-2.892586 -3.584775,1.646162 -8.467434,2.154356 -12.2088293,0.721774 M 36.680519,49.645357 c 0.0701,0.147789 0.63963,0.345021 1.086497,0.397594 0.444676,-0.05247 0.07557,-1.67246 0.138002,-2.009807 -0.05477,0.01244 -1.224499,0.224467 -1.224499,1.612213 m -17.276585,-1.79294 c 0,0 0,2.273765 -0.02421,2.273765 0.508199,-0.18069 1.358118,-0.375668 1.429311,-0.654962 0.09311,-0.378956 -0.82035,-1.359218 -1.405217,-1.618803 m -8.663492,-0.708605 c -0.736015,0.871816 -1.9451765,1.509236 -2.061275,2.991128 -0.024211,0.387739 1.42931,0.398664 1.453405,0.387739 0.877302,-0.686754 1.699841,-0.986852 2.061276,-2.507051 -0.0734,-0.452346 -0.987921,-0.854312 -1.453406,-0.871816 m 8.970157,-0.293397 c 0.01207,0.400845 1.093066,1.070058 1.564028,1.938585 0.47096,0.868564 0.400863,1.659317 0.400863,1.679037 3.825734,1.792941 10.143178,2.295653 14.031342,0.329686 0.04926,-1.682327 0.490672,-2.868493 1.802792,-3.432548 0.190564,-0.203675 -0.120492,-0.613327 -0.439199,-0.613327 -2.686663,1.071142 -5.236424,2.408447 -8.425814,2.340539 -3.469774,0.298978 -5.954915,-2.140141 -8.934012,-2.241972 m 26.172265,-2.27156 c -1.205877,0.184113 -1.0164,2.067835 -0.875108,2.781934 1.424925,-0.893741 3.347102,-1.320872 4.878275,-0.997777 0.07994,0.0098 0.09419,-1.192718 0.09419,-1.761184 0,0 -2.251849,-0.680139 -4.097358,-0.02168 M 7.1971674,44.445355 c -0.017374,0.631988 -0.083226,1.427127 0.028571,1.865221 1.7184576,-0.19063 4.1367876,0.07108 5.0513256,0.849938 L 12.125927,45.266791 C 11.168672,43.665528 8.8456322,44.206574 7.1972694,44.445355 M 24.931676,38.902253 v 0.823641 c 0.842252,2.303315 3.589155,1.587011 5.495997,2.171897 0.521345,0.194978 1.056925,0.889331 1.463267,1.268288 0.113915,-4.544203 -4.838849,-2.429276 -6.959264,-4.263826 m 0.619914,-0.983525 -0.278208,0.294628 0.278208,0.217951 z m -5.202477,-5.345956 c -0.254087,0.512579 0.441389,1.153289 0.644013,1.733802 0.824728,3.176226 -3.45006,3.703058 -5.103901,5.359086 -0.63963,0.687813 -1.018588,1.525694 -0.897016,2.473079 0.257377,0.648383 0.966017,1.223402 1.65603,1.289129 0.894827,-0.14344 1.857556,-0.337358 2.490615,-1.095271 0.192769,-0.384414 0,-0.958349 -0.37677,-1.07772 -0.761202,0.580475 -1.470928,1.219017 -2.499378,1.07772 -0.304474,-0.04594 -0.691104,-0.303326 -0.633055,-0.69109 1.09197,-2.047031 3.641729,-2.300063 5.227662,-4.021795 0.768871,-0.970394 1.085399,-2.119335 0.834586,-3.388744 -0.316531,-0.56514 -0.376769,-1.776483 -1.342786,-1.658196 M 16.39852,31.88167 c -0.631963,0.691102 -1.021875,1.653823 -0.768869,2.670237 0.259581,0.373487 0.328575,1.096344 0.825822,1.145616 2.235422,-0.392087 0.07665,-2.098508 0.386627,-3.319729 0.06902,-0.431517 0.449056,-0.964902 0.959444,-1.066758 -0.576104,0.06146 -1.079923,0.189386 -1.403024,0.570634 m 23.67289,-0.761227 c -2.561806,0.571718 -5.172899,2.095243 -7.855182,1.141268 -0.189479,0.449056 0.06789,0.895921 0.391004,1.145652 2.804955,1.144544 5.533241,-0.443588 8.222095,-1.029569 0.318722,0.07674 0.50601,0.388835 0.50601,0.707557 -0.698773,1.283625 -2.226657,1.599058 -3.49387,2.034985 -0.07448,0.273837 0.176345,0.328565 0.29901,0.527915 1.029542,0.75683 1.981322,-0.443587 2.881623,-0.963842 0.821444,-0.75683 1.658219,-1.599058 1.398645,-2.695414 -0.449063,-0.868552 -1.467654,-0.814871 -2.349335,-0.868552 m -8.044663,-0.278185 c -0.25629,0.530096 0.38553,0.570634 0.697677,0.713015 1.344978,0.391004 3.199248,0.326397 4.215648,-0.525735 -1.340596,-0.875117 -3.567253,-0.988994 -4.913325,-0.187218 M 18.050169,28.042844 c 0.255203,0.202739 0.455626,0.516953 0.768871,0.38992 0.132538,-0.187218 0.385531,-0.253032 0.319814,-0.442479 -0.124869,-0.653877 -0.955062,-0.569551 -1.088685,0.05247 m 7.081933,-1.194924 c -0.200438,0.680139 -0.05695,1.522405 0.132538,2.158741 1.220117,2.600161 3.954974,3.065639 6.123583,4.078751 0.132538,-0.121699 0.132538,-0.318721 0.191681,-0.51258 -0.765582,-3.185009 -4.598982,-3.757823 -6.447777,-5.724912 m 13.327089,-0.18845 c -0.318718,0.100882 -0.88387,0.04939 -0.759013,0.57173 1.089782,0.378957 2.291279,0.621026 3.321916,1.139063 0.44139,0.189386 1.329645,0.572813 1.329645,-0.32748 -1.140164,-0.811583 -2.477473,-1.28253 -3.892548,-1.383313 m -22.060672,0.188438 c -0.254084,0.243103 -0.135797,0.762299 0,1.004367 -0.579393,1.154374 0.385532,2.044826 1.144545,2.607799 1.14783,0.276004 2.30004,0.276004 3.128054,-0.500546 -0.199351,-0.498329 -0.437006,-1.070046 -0.959446,-1.399732 -1.020778,1.281444 -2.168608,-0.314349 -3.063434,-0.707521 0.135798,-0.05149 0.193854,-0.324228 0.391007,-0.187218 0.306679,-0.136912 0.961637,-0.328564 0.887159,-0.817051 -0.511485,-0.514785 -1.015303,-0.514785 -1.527885,0 m 16.065234,-0.514785 c -0.38334,0.326397 -1.075541,0.514785 -0.883871,1.14128 0.757918,-0.189385 1.590313,-0.52246 2.038273,-1.14128 -0.326387,-0.144673 -0.817061,-0.0537 -1.154402,0 m 1.0854,-0.830181 c 1.349357,0.191554 2.160944,1.404104 2.423804,2.611075 0.322003,-0.194967 0.777632,-0.123869 1.030638,-0.503822 0.125956,-0.762287 -0.199351,-1.330716 -0.647298,-1.849885 -0.697678,-0.571718 -2.105083,-0.961638 -2.807144,-0.257368 m -7.707325,-0.573935 c -0.326386,0.187205 -0.452341,0.498366 -0.385531,0.87949 0.139089,0.277248 0.317626,0.851023 0.569536,0.662635 0.124869,-0.580489 0.124869,-1.166457 -0.184015,-1.542125 m 15.820989,0 c -1.922175,0.87949 -3.323008,-1.401912 -4.982324,-0.385535 1.531171,0.694415 2.994435,2.116048 4.910039,1.407406 0.450152,-0.256137 1.154402,-0.579392 1.089781,-1.28254 H 42.351753 Z M 17.543079,24.228052 c -0.821444,0.382245 -2.226659,0.888272 -2.226659,1.906854 0.450151,0.772153 1.082115,-0.0494 1.525695,-0.326396 1.019683,-0.950674 2.171894,-0.11394 3.252914,0.142503 0.139088,-0.447935 -0.251912,-0.902498 -0.50382,-1.28254 -0.514769,-0.569513 -1.285831,-0.440299 -2.04813,-0.440299 m 16.757438,-3.635162 c 0.145671,0.278172 0.145671,0.943037 0.681247,0.811593 0.802824,-0.664803 0.802824,-1.864111 0.676871,-2.811521 -0.676871,0.40087 -1.281451,1.269396 -1.358118,1.999928 m 4.584745,-3.328488 -0.139089,0.715233 c -0.06681,1.232147 1.183974,1.064589 1.633029,1.325257 v -1.325257 c -0.395397,-0.621027 -0.914551,-0.531218 -1.49394,-0.715233 m -4.054642,-3.044809 -0.110613,-0.847722 -0.2738,0.847722 z m 5.632908,-2.706364 -0.392104,0.584861 c 0.247536,0.07551 0.31215,0.0962 0.553106,-0.01244 z m 1.577171,-1.8586686 c -0.449056,0.3767766 -1.088685,1.1303166 -1.119354,1.4490406 0.03073,0.510375 0.422769,2.066752 0.167559,3.028388 0.454548,0.189387 1.040509,-0.09534 1.429326,-0.202738 0.467676,-1.382203 0.63963,-3.2989 -0.477531,-4.2747887 M 17.217789,9.4804234 c 0.317623,0.6954986 1.355928,0.7743576 2.128084,0.9660086 L 19.0622,9.9557672 C 18.531001,9.1956605 18.024992,9.0039705 17.217789,9.4804234 m 20.387118,0.077604 C 37.223756,10.175763 37.216091,11.002656 37.586277,11.64998 38.172239,11.19325 39.047349,10.329096 39.423023,9.8066484 39.108686,9.2382074 38.17443,8.7825728 37.604898,9.5579652 m 0.17197,-1.5936022 c -6.640542,2.939651 0.688917,8.903344 -2.068938,13.846225 0.615534,0.114924 1.354832,-0.199315 1.688886,-0.75024 1.344974,-3.132425 0.161008,-6.580308 -0.569537,-9.586783 -0.266132,-1.048159 -0.163181,-1.6910717 0.641823,-2.4709109 0.815968,-0.69768 1.939703,-0.091889 2.327422,0.4337208 C 39.991469,9.290766 40.684782,8.6905212 40.684782,8.4188891 39.945483,7.8668798 38.789985,7.769397 37.776873,7.9643626 m -22.52725,0.2595482 c 0.569531,2.0229372 2.578235,0.06898 3.374486,0.7042323 3.765494,3.2047309 -1.160971,6.9526879 0.244243,10.9887209 0.320912,0.822557 0.843348,1.499394 1.670271,1.890435 0.903585,0.298041 2.144511,0.02168 2.903524,-0.475356 0.130336,-0.456731 -0.351574,-0.842265 -0.677961,-1.303369 -0.311054,0.269488 -0.631961,0.690005 -0.877301,0.937543 -0.324196,0.651672 -1.148926,0.520254 -1.284737,-0.126048 C 20.095044,16.857717 23.379721,11.854577 19.735801,8.4789996 18.429158,7.4867162 16.584745,7.5075083 15.249627,8.2237875 M 32.691599,47.538031 c 0.03285,0.03104 0.812681,0 3.505916,-1.374529 2.813716,-1.453426 2.433662,4.11377 2.433662,4.11377 2.97472,1.273782 7.754423,0.874033 8.139953,0.575019 0.372387,-0.317639 -1.566216,-1.394275 -2.190516,-2.560732 -0.54434,-1.032797 -0.456721,-3.202526 0,-3.688807 1.689982,-1.797326 5.995431,-0.546553 5.995431,-0.546553 0.139093,0.415134 -0.122685,2.992249 -0.122685,2.992249 -0.271623,-0.147777 -3.21348,-0.31105 -3.484008,0.263896 0,0 1.412879,0.518087 1.998842,1.824707 0.856492,1.918902 -0.607869,4.779696 -0.607869,4.779696 -5.745718,3.235401 -11.660107,-0.298042 -11.893396,-0.491739 -0.289138,-0.281597 -0.710822,-1.79953 -0.710822,-1.79953 -6.947216,2.847662 -14.101439,-0.331866 -14.101439,-0.331866 0.07336,1.355943 -0.577197,2.144527 -0.577197,2.144527 C 13.779768,56.892575 8.9847331,53.857608 8.9847331,53.857608 6.2323527,49.457955 10.092041,46.973912 10.092041,46.973912 9.5367424,46.720881 6.5631203,46.847865 6.5631203,46.847865 v -2.848759 c 6.5474477,-1.488469 6.2177737,1.077733 6.2834907,3.313152 0.07228,2.224457 -2.232134,3.509201 -2.232134,3.509201 5.057897,0.993405 8.059997,-0.481909 8.059997,-0.481909 0,0 -0.03396,-0.608943 0.04052,-3.175143 0.06573,-2.561816 5.405094,0.197147 5.405094,0.197147 1.152213,-0.796247 1.215738,-5.798302 1.215738,-5.798302 -2.692144,-2.962661 0.132538,-4.523411 0.132538,-4.523411 0.135798,-4.056838 -3.373394,-4.258357 -3.373394,-4.258357 0.74806,3.783002 -0.203727,4.258357 -0.749155,5.209044 -0.536676,0.937543 -5.336094,3.170758 -5.051327,3.770954 0.257376,0.624315 2.697619,-1.337305 2.697619,-1.337305 0.803919,0.796259 0.737109,2.229963 0.737109,2.229963 -0.948493,1.756774 -5.474096,2.021853 -5.203567,-1.153328 0.296805,-3.48619 2.906809,-2.974695 5.136756,-4.785151 2.22885,-1.824707 -0.605674,-3.934177 -0.605674,-3.934177 -0.535583,0.07551 -1.420549,0.616616 -1.420549,0.616616 0.07118,0.667045 0.947397,1.809372 0.947397,1.809372 -0.399772,0.470983 -2.502668,1.357014 -2.502668,1.357014 -0.338433,-0.126972 -0.878394,-1.154373 -0.878394,-1.154373 l -0.604584,0.679054 c 1.360311,5.072119 -3.308769,5.131269 -3.308769,5.131269 l 0.13471,-1.197104 C 10.614479,40.424177 8.589349,40.230418 8.589349,40.230418 8.4535198,38.251283 10.278234,36.715747 10.278234,36.715747 10.076711,36.633467 9.7437474,36.089253 9.7437474,36.089253 11.759021,34.274424 13.730483,35.41021 13.730483,35.41021 l 0.393197,-0.788585 c -1.152209,-2.167522 0.812683,-1.161 0.812683,-1.161 0.138003,-1.826875 1.417262,-2.346033 1.417262,-2.346033 -0.05915,-0.359248 -0.811584,-0.676887 -0.811584,-0.676887 -3.175151,2.623172 -4.857468,-1.49831 -4.857468,-1.49831 C 10.010988,29.006151 8.9847292,28.468448 8.9847292,28.468448 9.1950097,28.059905 9.9376058,27.395101 9.9376058,27.395101 9.6648909,27.239566 9.1950223,25.57478 9.1950223,25.57478 c 0.3417162,-0.205843 2.0218417,-0.270412 2.0218417,-0.270412 0,-0.411809 0.542153,-1.165337 0.542153,-1.165337 0.412915,0.286869 1.428214,1.641776 1.428214,1.641776 0.398677,-0.07551 1.131403,0.258611 1.131403,0.258611 0,-0.334058 0.472055,-0.934254 0.472055,-0.934254 0.07995,-0.212359 -1.06021,-0.819256 -1.06021,-0.819256 l 0.265046,-0.347201 c 0.259582,0 1.546506,0.414013 1.546506,0.414013 3.45006,-2.154356 4.789559,0.199314 4.789559,0.199314 0.410723,3.053566 1.220116,2.226636 1.220116,2.226636 0.140206,-0.274761 -0.131422,-1.673531 -0.131422,-1.673531 h 0.948492 c 0.130334,0.796246 1.682314,2.500461 1.682314,2.500461 -0.06902,-3.252916 1.888224,-4.204676 1.888224,-4.204676 -0.198233,-5.064494 -4.387602,-6.543084 -4.387602,-6.543084 -0.2738,1.009825 -0.68782,3.784122 -0.33953,3.916661 0.33953,0.132564 1.431503,-1.547618 1.431503,-1.547618 1.272692,0.795162 1.536647,2.415063 1.536647,2.415063 -4.384314,2.710738 -5.798294,-1.48847 -5.798294,-1.48847 -0.280383,0.07797 -2.766618,0.488486 -2.766618,0.488486 -0.412912,-0.488486 0.465482,-2.832326 0.465482,-2.832326 -1.630837,-0.07329 -2.561806,1.417247 -2.561806,1.417247 C 14.201443,22.865335 9.12821,23.610118 9.12821,23.610118 9.328647,23.33846 8.5115792,22.584957 8.5115792,22.584957 7.9825722,22.79638 5.5500049,22.995669 5.5500049,22.995669 5.4788166,21.248737 7.1052687,20.098711 7.1052687,20.098711 6.8971635,19.900628 6.4908268,18.552212 6.4908268,18.552212 10.010985,16.788848 12.232166,18.12507 12.232166,18.12507 c 2.168609,-2.083197 6.351398,-2.82798 6.351398,-2.82798 0.05695,-0.485198 0.332958,-1.00215 0.332958,-1.00215 0.200437,-0.937556 -3.511397,-0.937556 -3.511397,-0.937556 0.136915,-0.283764 -0.468767,-1.77211 -0.468767,-1.77211 -0.27054,0 -0.812685,0.342817 -0.812685,0.342817 -1.342782,1.947367 -1.560739,0.266076 -1.560739,0.266076 -0.330768,-0.06122 -1.273783,0.684548 -1.273783,0.684548 -0.740395,1.822503 -4.1126931,1.822503 -4.1126931,1.822503 0.3351494,-0.406339 0,-0.949603 0,-0.949603 C 6.4251138,13.674011 4.671604,12.263183 4.671604,12.263183 5.2126645,11.794406 7.1052687,10.829479 7.1052687,10.829479 6.5631164,10.358533 6.7065942,8.3410524 6.7065942,8.3410524 c 0.3252924,0.3548635 2.3624696,0.7579138 2.3624696,0.7579138 1.8761742,0.059006 2.4292802,2.0897488 2.4292802,2.0897488 0.673585,0.129152 2.902431,-1.141242 2.902431,-1.141242 C 13.921055,8.0190658 11.69111,7.6663835 11.69111,7.6663835 6.9771222,9.8470376 6.2323478,5.6489029 6.2323478,5.6489029 5.8873427,5.495534 4.7986562,5.0279146 4.7986562,5.0279146 5.0812432,4.6314175 6.3517317,4.0334248 6.3517317,4.0334248 6.0187723,3.8254148 5.8873427,2.196671 5.8873427,2.196671 6.3517317,2.0749709 8.1797152,2.3422795 8.1797152,2.3422795 8.0581394,1.9304462 8.6550551,0.98526595 8.6550551,0.98526595 L 9.6024545,3.0136601 c 0,0 2.8454785,-0.8170503 2.4216135,3.1094513 0,0 0.342815,0.4052559 1.16316,0.7359885 0,0 0.470964,-1.4741804 0.128131,-2.0919173 -0.343911,-0.6045683 -1.143446,-2.0886641 -1.344976,-2.1576557 0,0 1.216832,0.3263713 1.476408,0.5410578 0,0 0.808299,-0.8083052 0.808299,-1.1511217 0,0 1.896987,2.0338996 1.754605,3.1762277 -0.125958,1.1489406 -1.55965,2.0875803 -1.886036,2.221204 l 0.474247,0.4183856 c 0,0 4.866228,-2.0349834 6.822358,1.9495486 0,0 0.271627,-1.6965536 0.131421,-2.0985066 0,0 -2.645046,-0.3033261 -1.135781,-3.5825663 0.661534,-1.4742291 -0.147876,-2.084293 -0.147876,-2.084293 0,0 2.156561,0.3428165 2.57495,1.9648838 0,0 1.139068,-0.9506867 0.864159,-1.9648838 0,0 2.040465,0.8762014 1.490643,3.8553056 -0.330764,1.8115537 -1.886032,2.0864615 -1.886032,2.0864615 0,0 -1.085401,3.4380159 0.739299,6.2834739 0,0 1.689982,-1.484058 1.888224,-2.091917 0,0 -1.340595,-2.026238 -0.335149,-3.5125024 1.009826,-1.4862643 1.8937,-1.0799247 2.29785,-1.4205367 0,0 1.281451,-1.5509062 1.349357,-1.9714603 0,0 0.475343,1.3613983 0.266132,1.7042138 0,0 1.757888,-0.4720662 2.093036,-0.4720662 0,0 -0.134711,1.6889039 -0.335148,1.880556 0,0 0.943017,0.8773221 1.677933,0.6210252 0,0 -0.927682,1.1445326 -1.4775,1.2770716 0,0 -0.809395,3.786303 -4.732608,2.905729 0,0 -1.470932,1.556327 -1.617696,2.030598 0,0 1.617696,2.163114 1.617696,2.692127 0,0 2.096324,-0.679055 2.645047,-0.268245 0,0 3.565061,-1.423838 3.707446,-7.7522351 l 0.948492,-0.209254 c 0,0 -0.409625,-1.9714623 0,-3.1773484 0,0 -3.574919,-3.8508966 -1.219021,-5.060072 0,0 0.603485,1.1456163 1.346072,1.4753002 0,0 1.224496,-0.3296839 1.487359,-1.1456145 0,0 1.488455,2.0273095 0.950683,3.7654977 0,0 -1.616599,2.3197347 -1.282547,3.5102846 0,0 1.553075,-1.8717983 4.389789,-1.3953581 0,0 -0.340624,-2.3066155 1.090878,-4.1203611 0,0 0.194943,1.2201016 0.926588,1.8137456 0.759014,0.6100746 0.61663,1.5552549 0.408531,1.8301753 l 0.883873,-0.3351533 c 0,0 -1.089781,-3.179516 1.554168,-3.9232162 0,0 0.606773,-1.6932507 1.007638,-2.15106645 l 1.013111,1.14891725 c 0,0 1.14783,-1.08431035 1.691078,-1.08431035 0,0 0.604582,1.75677565 0.465487,2.08645955 0,0 1.222306,0.1381569 1.565121,-0.062454 0,0 -1.284736,2.1565602 -1.565121,2.3000633 0,0 0.74806,3.6318729 -4.600082,2.7019919 l -1.66479,1.4753012 c 0,0 0.53339,0.8159669 0.53339,1.0678899 0,0 3.099578,-1.0678899 3.642823,-1.6133101 0,0 0,1.8893151 -0.277091,2.4434911 0,0 1.900269,0.533411 2.504851,0.324217 0,0 -0.744773,2.238683 -2.504851,2.512521 0,0 0.619914,0.947385 -0.73711,0.74695 0,0 -1.215734,0.403075 -1.497216,0.794079 0,0 -0.791871,-1.146738 -1.214639,-1.215754 0,0 -1.808271,0.675791 -2.490616,0.35049 0,0 0.354863,-1.085393 0.07118,-1.343894 l -0.261754,-0.283766 0.261754,0.283766 c 0,0 -2.50047,0.109628 -2.362467,1.202597 0,0 0.338433,1.956151 0.338433,2.228867 0,0 1.883843,0.337322 2.218991,0.603485 l 0.08873,2.566201 -2.107278,-0.682344 c 0,0 -0.676866,3.520127 -2.970336,3.113788 -2.301151,-0.389919 -2.776494,-1.482975 -0.877317,-4.653733 0,0 -3.846546,0.388823 -3.793969,5.664679 0,0 0.21686,0.470945 0.967109,0.209254 0,0 -0.143468,1.342761 -0.34391,1.817033 0,0 2.082085,-1.417284 3.714019,-0.806125 0,0 1.140159,-1.625356 3.235384,-0.876201 0,0 1.085401,0 0.871828,-2.712954 l 1.020777,-0.06578 0.07118,1.503804 c 0,0 1.686698,-0.828013 1.898083,-1.221221 0,0 -0.88716,-2.439144 1.543216,-3.320814 0,0 0.81925,-1.267229 1.219019,-1.411778 0,0 0.531204,1.820297 0.464391,2.23101 0,0 2.029511,-0.3439 2.507043,-0.194967 0,0 -0.277092,1.601264 -0.608963,2.025142 0,0 1.009829,0.454515 1.350453,0.941893 0,0 -3.652684,2.021854 -5.40619,1.277071 0,0 -2.296754,0.676875 -2.707477,1.213548 0,0 1.021876,0.61116 2.635191,-0.399748 v 1.010908 h 0.759014 c 0,0 3.903497,-2.706366 5.457664,0.806125 0,0 1.008743,0.474233 1.622083,0.195901 0,0 -0.272716,1.2278 -0.813775,1.350472 0,0 0.813775,1.293492 0.813775,1.965969 0,0 -1.146738,0.337347 -1.822514,0.06676 0,0 0,1.431499 -0.140205,1.829081 0,0 -1.347165,-1.016403 -1.553076,-1.558545 0,0 -3.654873,0.542142 -3.776444,-3.095201 l -0.878379,-0.28034 c 0,0 -1.08759,0.810472 -1.55198,0.94959 0,0 1.20807,0.670297 1.478598,1.001029 0,0 -0.591438,1.561871 -1.066782,1.622104 0,0 -4.198121,-2.148898 -5.340473,-0.679054 0,0 2.090846,1.22998 2.562901,1.757858 0,0 4.386506,-1.001029 3.573826,2.703113 l 0.27054,0.409629 c 0,0 2.1708,0.207085 2.914478,4.057922 0,0 -2.632997,0.682343 -3.315344,-3.101779 0,0 -0.271627,0.118251 -0.47315,0.326397 0,0 0.282587,0.676874 0.140207,0.935339 0,0 3.038241,2.991165 -1.015305,6.222193 0,0 -1.499407,-1.681242 -1.499407,-2.44024 0,0 -1.81265,-0.581596 -2.688856,0.407424 0,0 -0.201524,-3.356955 3.922116,-3.714023 l 0.06573,-0.733819 c 0,0 -1.418357,0.877286 -2.026224,1.008741 0,0 -1.361404,0 -2.499376,-1.619887 0,0 4.050261,-1.348268 3.652683,-1.81266 -0.426058,-0.47644 -4.793941,2.287978 -7.97238,0.671379 0,0 -0.346098,0.602402 -0.813773,0.667034 0,0 -1.418361,2.562911 -0.469866,5.067745 0,0 3.137911,2.192702 0.772156,4.519039 0,0 0.372387,3.132413 0.913444,3.411719"
     style="fill:#b2b1b1;fill-opacity:1;fill-rule:nonzero;stroke:none;stroke-width:3.36063"
     id="path4593"
     inkscape:connector-curvature="0" />
</svg>
